<?xml version="1.0" encoding="UTF-8" standalone="no"?>
<svg
   xmlns:dc="http://purl.org/dc/elements/1.1/"
   xmlns:cc="http://creativecommons.org/ns#"
   xmlns:rdf="http://www.w3.org/1999/02/22-rdf-syntax-ns#"
   xmlns:svg="http://www.w3.org/2000/svg"
   xmlns="http://www.w3.org/2000/svg"
   xmlns:sodipodi="http://sodipodi.sourceforge.net/DTD/sodipodi-0.dtd"
   xmlns:inkscape="http://www.inkscape.org/namespaces/inkscape"
   width="100%"
   height="100%"
   viewBox="0 0 168 250"
   version="1.1"
   xml:space="preserve"
   style="fill-rule:evenodd;clip-rule:evenodd;stroke-miterlimit:1.41421;"
   id="svg18728"
   inkscape:version="0.91 r13725"
   sodipodi:docname="Cover option 2.svg"
   inkscape:export-filename="/home/raphink/dev/Scrum-poker-cards/png/Cover - option 2.png"
   inkscape:export-xdpi="374.04001"
   inkscape:export-ydpi="374.04001"><metadata
     id="metadata18869"><rdf:RDF><cc:Work
         rdf:about=""><dc:format>image/svg+xml</dc:format><dc:type
           rdf:resource="http://purl.org/dc/dcmitype/StillImage" /></cc:Work></rdf:RDF></metadata><defs
     id="defs18867"><clipPath
       id="clipPath20180"
       clipPathUnits="userSpaceOnUse"><path
         inkscape:connector-curvature="0"
         id="path20182"
         d="m 0,595.28 841.89,0 L 841.89,0 0,0 0,595.28 Z" /></clipPath></defs><sodipodi:namedview
     pagecolor="#ffffff"
     bordercolor="#666666"
     borderopacity="1"
     objecttolerance="10"
     gridtolerance="10"
     guidetolerance="10"
     inkscape:pageopacity="0"
     inkscape:pageshadow="2"
     inkscape:window-width="1920"
     inkscape:window-height="1043"
     id="namedview18865"
     showgrid="false"
     inkscape:zoom="1.888"
     inkscape:cx="171.09682"
     inkscape:cy="129.89559"
     inkscape:window-x="1366"
     inkscape:window-y="0"
     inkscape:window-maximized="1"
     inkscape:current-layer="svg18728" /><rect
     x="328.10001"
     y="180.7"
     width="49"
     height="61.5"
     style="fill:#ba3033"
     id="rect18737" /><rect
     x="230.10001"
     y="180.7"
     width="49"
     height="61.5"
     style="fill:#f7ebe3"
     id="rect18739" /><rect
     x="328.10001"
     y="68.799995"
     width="49"
     height="56.099998"
     style="fill:#e2b5a5"
     id="rect18741" /><path
     inkscape:connector-curvature="0"
     id="path18745"
     style="fill:#f7ebe3;fill-rule:nonzero"
     d="m 362.6,108.2 c 3.2,-2.8 5.2,-6.8 5.2,-11.3 0,-4.5 -2,-8.6 -5.2,-11.4 l -9.9,11.3 9.9,11.4 z" /><path
     inkscape:connector-curvature="0"
     id="path18747"
     style="fill:#f7ebe3;fill-rule:nonzero"
     d="m 377.1,68.8 -13.4,15.3 c 3.6,3.1 5.8,7.7 5.8,12.8 0,5.1 -2.3,9.7 -5.8,12.8 l 13.3,15.3 0,-56.2 0.1,0 z" /><path
     inkscape:connector-curvature="0"
     id="path18749"
     style="fill:#f7ebe3;fill-rule:nonzero"
     d="m 335.7,96.9 c 0,-5.1 2.3,-9.7 5.8,-12.8 l -13.3,-15.3 0,56.1 13.4,-15.3 c -3.7,-3.1 -5.9,-7.6 -5.9,-12.7 z" /><path
     inkscape:connector-curvature="0"
     id="path18751"
     style="fill:#f7ebe3;fill-rule:nonzero"
     d="m 342.7,85.5 c -3.2,2.8 -5.2,6.8 -5.2,11.3 0,4.5 2,8.6 5.2,11.4 l 9.9,-11.3 -9.9,-11.4 z" /><path
     inkscape:connector-curvature="0"
     id="path18753"
     style="fill:#f7ebe3;fill-rule:nonzero"
     d="m 352.6,81.8 c 3.8,0 7.3,1.4 9.9,3.7 l 1.2,-1.4 c -3,-2.6 -6.9,-4.2 -11.1,-4.2 -4.3,0 -8.2,1.6 -11.2,4.2 l 1.2,1.4 c 2.8,-2.3 6.2,-3.7 10,-3.7 z" /><path
     inkscape:connector-curvature="0"
     id="path18755"
     style="fill:#f7ebe3;fill-rule:nonzero"
     d="m 352.6,112 c -3.8,0 -7.2,-1.4 -9.9,-3.7 l -1.2,1.4 c 3,2.6 6.9,4.2 11.1,4.2 4.3,0 8.2,-1.6 11.2,-4.2 l -1.2,-1.4 c -2.7,2.2 -6.2,3.7 -10,3.7 z" /><rect
     x="328.10001"
     y="7.1999998"
     width="49"
     height="61.599998"
     style="fill:#ba3033"
     id="rect18757" /><circle
     id="circle18761"
     style="fill:#f7ebe3"
     r="16"
     cy="39.400002"
     cx="352.59998" /><circle
     id="circle18763"
     style="fill:#ba3033"
     r="11.7"
     cy="39.400002"
     cx="352.59998" /><circle
     id="circle18765"
     style="fill:#f7ebe3"
     r="7"
     cy="39.400002"
     cx="352.59998" /><circle
     id="circle18767"
     style="fill:#ba3033"
     r="3.3"
     cy="39.400002"
     cx="352.59998" /><rect
     x="279.10001"
     y="180.7"
     width="49"
     height="61.5"
     style="fill:#f7ebe3"
     id="rect18769" /><path
     d="m 328.1,241.9 -24.5,-30.5 24.5,-30.3 0,60.8 z"
     style="fill:#0e1226;fill-rule:nonzero"
     id="path18771"
     inkscape:connector-curvature="0" /><path
     d="m 279.1,181.1 24.5,30.4 -24.5,30.4 0,-60.8 z"
     style="fill:#0e1226;fill-rule:nonzero"
     id="path18773"
     inkscape:connector-curvature="0" /><circle
     cx="303.60001"
     cy="210.5"
     r="16"
     style="fill:none;stroke:#f5eae2;stroke-width:2px"
     id="circle18775" /><path
     inkscape:connector-curvature="0"
     id="path18779"
     style="fill:#0e1226;fill-rule:nonzero"
     d="m 251.4,199.8 c -1.9,-1.1 -3.7,-2.1 -5.4,-3.2 -5,2.7 -8.3,7.9 -8.3,13.9 0,6 3.4,11.2 8.3,13.9 1.7,-1.1 3.5,-2.2 5.4,-3.2 5.5,-3.1 12.2,-5.7 17.6,-7.5 0.2,-1 0.3,-2 0.3,-3.1 0,-1.1 -0.1,-2.1 -0.3,-3.1 -5.4,-2 -12.1,-4.6 -17.6,-7.7 z" /><path
     inkscape:connector-curvature="0"
     id="path18781"
     style="fill:#0e1226;fill-rule:nonzero"
     d="m 244.1,225.5 c -5.1,-3.1 -8.5,-8.7 -8.5,-15.1 0,-6.4 3.4,-11.9 8.5,-15.1 -6.1,-4 -10.1,-8.1 -14,-14.3 l 0,58.8 c 4.2,-6.6 7.9,-10.3 14,-14.3 z" /><path
     inkscape:connector-curvature="0"
     id="path18783"
     style="fill:#0e1226;fill-rule:nonzero"
     d="m 271.3,210.5 c 0,0.8 -0.1,1.6 -0.2,2.4 4.7,-1.5 8.1,-2.4 8.1,-2.4 0,0 -3.3,-0.9 -8.1,-2.4 0.1,0.7 0.2,1.5 0.2,2.4 z" /><path
     inkscape:connector-curvature="0"
     id="path18785"
     style="fill:#ba3033;fill-rule:nonzero"
     d="m 253.5,192.7 c -3.4,0 -6.6,1 -9.3,2.7 0.6,0.4 1.2,0.8 1.9,1.2 2.2,-1.2 4.8,-1.9 7.5,-1.9 7.7,0 14,5.4 15.5,12.6 0.7,0.2 1.4,0.5 2.1,0.7 -1.3,-8.6 -8.7,-15.3 -17.7,-15.3 z" /><path
     inkscape:connector-curvature="0"
     id="path18787"
     style="fill:#ba3033;fill-rule:nonzero"
     d="m 253.5,226.2 c -2.7,0 -5.3,-0.7 -7.5,-1.9 -0.6,0.4 -1.2,0.8 -1.9,1.2 2.7,1.7 5.9,2.7 9.3,2.7 9,0 16.4,-6.7 17.6,-15.3 -0.7,0.2 -1.4,0.5 -2.1,0.7 -1.4,7.2 -7.8,12.6 -15.4,12.6 z" /><rect
     id="rect18791"
     style="fill:#e2b5a5"
     height="56.099998"
     width="49"
     y="124.89999"
     x="279.10001" /><path
     inkscape:connector-curvature="0"
     id="path18793"
     style="fill:#ba3033;fill-rule:nonzero"
     d="m 328.1,181.1 0,-56.2 -49,0 49,56.2 z" /><rect
     x="328.10001"
     y="124.89999"
     width="49"
     height="56.099998"
     style="fill:#0e1226"
     id="rect18795" /><circle
     cx="303.60001"
     cy="153"
     r="16"
     style="fill:none;stroke:#ffffff;stroke-width:2px"
     id="circle18797" /><circle
     cx="352.59998"
     cy="153"
     r="16"
     style="fill:none;stroke:#ffffff;stroke-width:2px"
     id="circle18799" /><circle
     cx="352.59998"
     cy="153"
     r="11.1"
     style="fill:none;stroke:#ffffff;stroke-width:2px"
     id="circle18801" /><path
     d="M 363.6,153 319,153"
     style="fill:none;stroke:#ffffff;stroke-width:2px"
     id="path18803"
     inkscape:connector-curvature="0" /><rect
     x="230.10001"
     y="68.799995"
     width="49"
     height="56.099998"
     style="fill:#e2b5a5"
     id="rect18805" /><path
     d="m 254.6,128.9 0,-16.6"
     style="fill:none;stroke:#ffffff;stroke-width:2px"
     id="path18807"
     inkscape:connector-curvature="0" /><rect
     x="230.10001"
     y="7.1999998"
     width="49"
     height="61.599998"
     style="fill:#ba3033"
     id="rect18809" /><path
     d="m 279.1,68.8 c -11.6,0.8 -15.7,1.2 -24.5,7.5 -9.5,-6.5 -13.2,-6.8 -24.5,-7.5 l 49,0 z"
     style="fill:#ba3033;fill-rule:nonzero"
     id="path18811"
     inkscape:connector-curvature="0" /><circle
     cx="254.60001"
     cy="96.899994"
     r="16"
     style="fill:none;stroke:#ffffff;stroke-width:2px"
     id="circle18813" /><path
     inkscape:connector-curvature="0"
     id="path18817"
     style="fill:#f7ebe3;fill-rule:nonzero"
     d="m 242.6,49.9 12.1,-10.5 12,10.5 c 2.5,-2.8 4,-6.5 4,-10.5 0,-4 -1.5,-7.7 -4,-10.5 l -12.1,10.5 -12,-10.5 c -2.5,2.8 -4,6.5 -4,10.5 0,4 1.5,7.7 4,10.5 z" /><path
     inkscape:connector-curvature="0"
     id="path18819"
     style="fill:#e2b5a5;fill-rule:nonzero"
     d="m 266.7,28.9 c -2.9,-3.4 -7.2,-5.5 -12.1,-5.5 -4.8,0 -9.1,2.1 -12.1,5.5 l 12,10.5 12.2,-10.5 z" /><path
     inkscape:connector-curvature="0"
     id="path18821"
     style="fill:#e2b5a5;fill-rule:nonzero"
     d="m 266.7,49.9 -12,-10.5 -12.1,10.5 c 2.9,3.4 7.2,5.5 12.1,5.5 4.8,0 9.1,-2.1 12,-5.5 z" /><path
     inkscape:connector-curvature="0"
     id="path18825"
     style="fill:none;stroke:#ffffff;stroke-width:2px"
     d="M 262.5,101.7 254.3,87.3" /><path
     inkscape:connector-curvature="0"
     id="path18827"
     style="fill:none;stroke:#ffffff;stroke-width:2px"
     d="M 255,106.4 246.8,92" /><path
     d="m 364,199.1 -11.4,-10.4 -10.2,9.3 c -3.6,2.9 -5.9,7.4 -5.9,12.4 0,8.9 7.2,16 16,16 8.9,0 16,-7.2 16,-16 0.2,-4.4 -1.6,-8.4 -4.5,-11.3 z"
     style="fill:#f7ebe3;fill-rule:nonzero"
     id="path18829"
     inkscape:connector-curvature="0" /><rect
     x="279.10001"
     y="7.1999998"
     width="49"
     height="61.599998"
     style="fill:#e2b5a5"
     id="rect18831" /><rect
     x="279.10001"
     y="68.799995"
     width="49"
     height="56.099998"
     style="fill:#0e1226"
     id="rect18833" /><circle
     cx="303.60001"
     cy="96.899994"
     r="16"
     style="fill:#ba3033"
     id="circle18835" /><path
     d="m 303.6,25.4 c 7.7,0 14,6.3 14,14 0,4.2 -1.9,8.2 -5.2,10.9 -5.3,4.6 -7.8,7 -8.9,8.4 -1.2,-1.4 -3.9,-4.1 -9.9,-9.4 -2.6,-2.6 -4.1,-6.1 -4.1,-9.9 0.1,-7.7 6.4,-14 14.1,-14 m 0,-2 c -8.9,0 -16,7.2 -16,16 0,4.4 1.8,8.4 4.7,11.3 0,0 10.2,9.1 10.4,10.1 0.1,0.9 0.9,2.2 0.9,2.2 0,0 0.9,-1.5 0.9,-2.2 0.1,-1.1 9.2,-9 9.2,-9 3.6,-2.9 5.9,-7.4 5.9,-12.4 0.1,-8.9 -7.1,-16 -16,-16 z"
     style="fill:#ffffff;fill-rule:nonzero"
     id="path18837"
     inkscape:connector-curvature="0" /><path
     d="m 303.6,106.6 0,-46.3"
     style="fill:#d1d3d4;fill-rule:nonzero;stroke:#ffffff;stroke-width:2px"
     id="path18839"
     inkscape:connector-curvature="0" /><rect
     x="230.10001"
     y="124.89999"
     width="49"
     height="56.099998"
     style="fill:#ba3033"
     id="rect18841" /><path
     inkscape:connector-curvature="0"
     id="path18845"
     style="fill:#f7ebe3;fill-rule:nonzero"
     d="m 238.6,153 c 0,-8.9 7.2,-16 16,-16 4,0 7.7,1.5 10.5,4 l 14,-16 -49,0 0,56.1 14,-16 c -3.4,-3 -5.5,-7.3 -5.5,-12.1 z" /><path
     inkscape:connector-curvature="0"
     id="path18847"
     style="fill:#f7ebe3;fill-rule:nonzero"
     d="M 265.2,140.9 244.1,165 c 2.8,2.5 6.5,4 10.5,4 8.9,0 16,-7.2 16,-16 0.1,-4.8 -2.1,-9.1 -5.4,-12.1 z" /><path
     d="m 296.7,89.9 13.9,13.9"
     style="fill:#d1d3d4;fill-rule:nonzero;stroke:#ffffff;stroke-width:2px"
     id="path18849"
     inkscape:connector-curvature="0" /><path
     d="m 293.8,96.9 19.7,0"
     style="fill:#d1d3d4;fill-rule:nonzero;stroke:#ffffff;stroke-width:2px"
     id="path18851"
     inkscape:connector-curvature="0" /><path
     d="M 296.7,103.8 310.6,89.9"
     style="fill:#d1d3d4;fill-rule:nonzero;stroke:#ffffff;stroke-width:2px"
     id="path18853"
     inkscape:connector-curvature="0" /><path
     d="m 328.1,9.4 -24.5,7.5 -24.5,-7.5 49,0 z"
     style="fill:#f7ebe3;fill-rule:nonzero"
     id="path18855"
     inkscape:connector-curvature="0" /><rect
     style="opacity:1;fill:#ffffff;fill-opacity:1;stroke:none;stroke-width:3;stroke-linejoin:miter;stroke-miterlimit:4;stroke-dasharray:none;stroke-dashoffset:0;stroke-opacity:1"
     id="rect20555"
     width="190.1483"
     height="263.77118"
     x="-7.4152541"
     y="-5.8262715" /><path
     d="m 149.1,1.7 -131,0 C 12.2,1.7 4.6,9.2 4.6,15.1 l 0,219.2 c 0,5.9 7.6,13.4 13.5,13.4 l 131,0 c 5.9,0 13.5,-7.5 13.5,-13.4 L 162.6,15 C 162.6,9.2 155,1.7 149.1,1.7 Z m 7.5,231.7 c 0,4.4 -3.6,8 -8,8 l -130,0 c -4.4,0 -8,-3.6 -8,-8 l 0,-217.5 c 0,-4.4 3.6,-8 8,-8 l 130,0 c 4.4,0 8,3.6 8,8 l 0,217.5 z"
     style="fill:#ffffff;fill-rule:nonzero"
     id="path18859"
     inkscape:connector-curvature="0" /><path
     d="m 148.35,244.95 -129.6,0 c -6.2,0 -11.3,-5.1 -11.3,-11.3 l 0,-217.9 c 0,-6.2 5.1,-11.3 11.3,-11.3 l 129.7,0 c 6.2,0 11.3,5.1 11.3,11.3 l 0,217.9 c 0,6.2 -5.1,11.3 -11.4,11.3 z"
     style="fill:none;stroke:#f47216;stroke-width:1px;stroke-opacity:1"
     id="path18863"
     inkscape:connector-curvature="0" /><path
     inkscape:connector-curvature="0"
     id="path3472"
     style="fill:#f25a30;fill-opacity:1;fill-rule:nonzero;stroke:none"
     d="m -122.56503,43.728175 0,-1.958912 c 0,0 -0.51349,0.137488 -1.2359,0.137488 -0.56042,0 -0.8076,-0.40589 -0.8076,-0.982744 l 0,-3.773462 1.82591,0 0,-2.142429 -1.82591,0 0,-2.2578 -2.50498,0 0,2.2578 -1.05448,0 0,2.142429 1.05448,0 0,4.18533 c 0,2.043497 1.03834,2.65293 2.57104,2.65293 1.41404,0 1.97744,-0.26063 1.97744,-0.26063" /><path
     inkscape:connector-curvature="0"
     id="path3476"
     style="fill:#f25a30;fill-opacity:1;fill-rule:nonzero;stroke:none"
     d="m -114.7347,39.473683 c 0,1.301956 -0.85691,2.406048 -2.29068,2.406048 -1.38415,0 -2.32356,-1.13697 -2.32356,-2.438925 l 0,-0.03318 c 0,-1.301658 0.85722,-2.405451 2.29068,-2.405451 1.38415,0 2.32356,1.136671 2.32356,2.438628 l 0,0.03288 z m 2.4718,-0.03288 0,-0.03318 c 0,-2.537261 -2.02706,-4.564319 -4.76248,-4.564319 -2.75216,0 -4.79536,2.059637 -4.79536,4.597496 l 0,0.03288 c 0,2.537858 2.02676,4.564618 4.76248,4.564618 2.75186,0 4.79536,-2.059638 4.79536,-4.597495" /><path
     inkscape:connector-curvature="0"
     id="path3480"
     style="fill:#6b6e71;fill-opacity:1;fill-rule:nonzero;stroke:none"
     d="m -131.0756,39.440833 c 0,1.483083 -0.98902,2.438927 -2.15857,2.438927 -1.17014,0 -2.14243,-0.972283 -2.14243,-2.438927 l 0,-0.03318 c 0,-1.466643 0.97229,-2.438628 2.14243,-2.438628 1.16955,0 2.15857,0.971985 2.15857,2.438628 l 0,0.03318 z m 2.25422,0 0,-0.03318 c 0,-2.949726 -1.96071,-4.564319 -4.02064,-4.564319 -1.30166,0 -2.14243,0.609731 -2.75187,1.433467 l 0,-1.26878 -2.35464,0 0,11.469231 2.35464,0 0,-3.7899 c 0.593,0.708364 1.41703,1.317797 2.75187,1.317797 2.09281,0 4.02064,-1.614294 4.02064,-4.56432" /><path
     inkscape:connector-curvature="0"
     id="path3484"
     style="fill:#6b6e71;fill-opacity:1;fill-rule:nonzero;stroke:none"
     d="m -70.850406,39.440833 c 0,1.483083 -0.988722,2.438927 -2.158868,2.438927 -1.169848,0 -2.142131,-0.972283 -2.142131,-2.438927 l 0,-0.03318 c 0,-1.466643 0.972283,-2.438628 2.142131,-2.438628 1.170146,0 2.158868,0.971985 2.158868,2.438628 l 0,0.03318 z m 2.254512,0 0,-0.03318 c 0,-2.949726 -1.961004,-4.564319 -4.021239,-4.564319 -1.301658,0 -2.142131,0.609731 -2.751564,1.433467 l 0,-1.26878 -2.354938,0 0,11.469231 2.354938,0 0,-3.7899 c 0.592995,0.708364 1.417029,1.317797 2.751564,1.317797 2.092814,0 4.021239,-1.614294 4.021239,-4.56432" /><path
     inkscape:connector-curvature="0"
     id="path3488"
     style="fill:#6b6e71;fill-opacity:1;fill-rule:nonzero;stroke:none"
     d="m -163.12246,42.423437 -1.46635,-1.483082 c -0.61003,0.576854 -1.18628,0.939405 -2.02706,0.939405 -1.36771,0 -2.24106,-1.087653 -2.24106,-2.438927 l 0,-0.03318 c 0,-1.301657 0.89009,-2.405451 2.14213,-2.405451 0.89009,0 1.45021,0.378692 2.01062,0.971985 l 1.5324,-1.647771 c -0.82373,-0.922966 -1.86207,-1.483082 -3.52658,-1.483082 -2.70225,0 -4.63067,2.076375 -4.63067,4.597495 l 0,0.03288 c 0,2.521121 1.94486,4.564618 4.59779,4.564618 1.76314,0 2.75217,-0.675487 3.60878,-1.614892" /><path
     inkscape:connector-curvature="0"
     id="path3492"
     style="fill:#6b6e71;fill-opacity:1;fill-rule:nonzero;stroke:none"
     d="m -102.89739,42.423437 -1.46604,-1.483082 c -0.61033,0.576854 -1.18689,0.939405 -2.02736,0.939405 -1.36742,0 -2.24107,-1.087653 -2.24107,-2.438927 l 0,-0.03318 c 0,-1.301657 0.89009,-2.405451 2.14243,-2.405451 0.88979,0 1.44991,0.378692 2.01033,0.971985 l 1.53269,-1.647771 c -0.82403,-0.922966 -1.86177,-1.483082 -3.52688,-1.483082 -2.70224,0 -4.63007,2.076375 -4.63007,4.597495 l 0,0.03288 c 0,2.521121 1.94427,4.564618 4.5975,4.564618 1.76343,0 2.75186,-0.675487 3.60847,-1.614892" /><path
     inkscape:connector-curvature="0"
     id="path3496"
     style="fill:#6b6e71;fill-opacity:1;fill-rule:nonzero;stroke:none"
     d="m -158.71078,42.228175 c -0.71016,0 -1.14415,-0.371817 -1.14415,-0.84376 0,-0.543678 0.26243,-0.825529 1.04402,-0.940303 1.62983,-0.239708 2.03064,-0.527835 2.03064,-0.527835 0.26273,2.065315 -1.17253,2.311898 -1.93051,2.311898 m 4.35868,1.608914 c 0,0 -0.0143,-4.247497 -0.0143,-5.735063 0,-1.759255 -1.36712,-3.260569 -3.94114,-3.260569 -2.31489,0 -3.58666,1.482185 -3.58666,1.482185 l 1.48368,1.569461 c 0,0 0.62588,-0.893676 2.02796,-0.893676 1.06314,0 1.57723,0.313235 1.57723,0.851234 0,1.477104 -5.41465,-0.225063 -5.41465,3.698141 0,1.902423 1.38893,2.488841 2.69059,2.488841 2.00225,0 2.72406,-1.129199 2.72406,-1.129199 l -0.0209,0.925656 2.4742,0.003 z" /><path
     inkscape:connector-curvature="0"
     id="path3500"
     style="fill:#6b6e71;fill-opacity:1;fill-rule:nonzero;stroke:none"
     d="m -98.485862,42.228175 c -0.710158,0 -1.143844,-0.371817 -1.143844,-0.84376 0,-0.543678 0.262723,-0.825529 1.044016,-0.940303 1.629537,-0.239708 2.030346,-0.527835 2.030346,-0.527835 0.263021,2.065315 -1.172239,2.311898 -1.930518,2.311898 m 4.358685,1.608914 c 0,0 -0.01435,-4.247497 -0.01435,-5.735063 0,-1.759255 -1.366816,-3.260569 -3.941138,-3.260569 -2.314594,0 -3.586064,1.482185 -3.586064,1.482185 l 1.48309,1.569461 c 0,0 0.625868,-0.893676 2.028252,-0.893676 1.062845,0 1.576933,0.313235 1.576933,0.851234 0,1.477104 -5.414355,-0.225063 -5.414355,3.698141 0,1.902423 1.38893,2.488841 2.69029,2.488841 2.002549,0 2.724065,-1.129199 2.724065,-1.129199 l -0.02063,0.925656 2.473897,0.003 z" /><path
     inkscape:connector-curvature="0"
     id="path3504"
     style="fill:#6b6e71;fill-opacity:1;fill-rule:nonzero;stroke:none"
     d="m -139.37383,43.840557 0,-5.751204 c 0,-2.125393 -1.12054,-3.246223 -2.98291,-3.246223 -1.20272,0 -2.12569,0.494361 -2.90011,1.400888 -0.46148,-0.890089 -1.33483,-1.400888 -2.48854,-1.400888 -1.26878,0 -2.02676,0.675786 -2.60361,1.417327 l 0,-1.252341 -2.50469,0 0,8.832441 2.50469,0 0,-4.926871 c 0,-1.186585 0.57685,-1.796317 1.51655,-1.796317 0.93881,0 1.46605,0.609732 1.46605,1.796317 l 0,4.926871 2.50498,0 0,-4.926871 c 0,-1.186585 0.57656,-1.796317 1.51626,-1.796317 0.9394,0 1.46664,0.609732 1.46664,1.796317 l 0,4.926871 2.50469,0 z" /><path
     inkscape:connector-curvature="0"
     id="path3508"
     style="fill:#6b6e71;fill-opacity:1;fill-rule:nonzero;stroke:none"
     d="m -79.148645,43.840557 0,-5.751204 c 0,-2.125393 -1.12083,-3.246223 -2.982903,-3.246223 -1.202725,0 -2.125392,0.494361 -2.900409,1.400888 -0.461184,-0.890089 -1.334535,-1.400888 -2.488542,-1.400888 -1.26848,0 -2.026461,0.675786 -2.603314,1.417327 l 0,-1.252341 -2.504682,0 0,8.832441 2.504682,0 0,-4.926871 c 0,-1.186585 0.576853,-1.796317 1.516259,-1.796317 0.938807,0 1.466942,0.609732 1.466942,1.796317 l 0,4.926871 2.504383,0 0,-4.926871 c 0,-1.186585 0.576554,-1.796317 1.516258,-1.796317 0.939107,0 1.466346,0.609732 1.466346,1.796317 l 0,4.926871 2.50498,0 z" /><path
     d="m -65.262455,31.580229 0.22835,0 0,-0.228649 -0.22835,0 0,0.228649 z m -1.371597,0.457 0.228649,0 0,-0.22865 -0.228649,0 0,0.22865 z m -0.228948,0.228948 0.228948,0 0,-0.228948 -0.228948,0 0,0.228948 z m -0.914299,0.685948 0.228649,0 0,-0.22865 -0.228649,0 0,0.22865 z m -0.228949,0.22865 -0.228648,0 0,0.22835 0.228648,0 0,-0.22835 z m 0.228949,-0.22865 -0.228949,0 0,0.22865 0.228949,0 0,-0.22865 z m 0.68535,-0.228948 -0.228649,0 0,0.228649 0.228649,0 0,-0.228649 z m 0.228949,-0.457 -0.228949,0 0,0.457 0.228949,0 0,-0.457 z m 0.228948,0.22865 0.228649,0 0,-0.22865 -0.228649,0 0,0.22865 z m 0.914299,-0.22865 -0.22865,0 0,0.22865 0.22865,0 0,-0.22865 z m 0.228648,-0.457598 -0.228648,0 0,0.457598 0.228648,0 0,-0.457598 z m 0.22865,-0.22835 -0.228948,0 0,0.22865 0.228948,0 0,-0.22865 z m 1.600545,1.828896 -0.228948,0 0,-0.22835 0,-0.22865 -0.22835,0 0,-0.228948 0,-0.22835 -0.22865,0 0,-0.457598 -0.228649,0 0,-0.22865 -0.22865,0 0,-0.22835 -0.228948,0 0,0.457 0,0.06367 0,0.165286 -0.22835,0 0,0.228649 0.22835,0 0,0.101024 0,0.127327 -0.22835,0 0,-0.228351 -0.22865,0 0,0.228351 -0.228648,0 0,0.228948 0.228648,0 0,0.22865 -0.228648,0 0,0.22835 -0.228351,0 0,-0.22835 0.228351,0 0,-0.22865 -0.228351,0 0,-0.457299 -0.457598,0 0,0.228351 -0.22835,0 0,0.228948 -0.228948,0 0,0.457 0.228948,0 0,0.228948 -0.228948,0 0,-0.228948 -0.228949,0 0,-0.22835 -0.228351,0 0,-0.22865 -0.228648,0 0,0.457 -0.4573,0 0,0.228948 -0.228648,0 0,-0.228948 -0.22865,0 0,0.228948 0,0.183517 0,1.18808 1.829494,0 0.121946,0 2.850196,0 0,-1.600545 z"
     style="fill:#f25a30;fill-opacity:1;fill-rule:nonzero;stroke:none"
     id="path3510"
     inkscape:connector-curvature="0" /><path
     d="m -170.57087,52.23937 -0.42412,0 0,-2.413521 0.42412,0 0,2.413521 z"
     style="fill:#6b6e71;fill-opacity:1;fill-rule:nonzero;stroke:none"
     id="path3512"
     inkscape:connector-curvature="0" /><path
     inkscape:connector-curvature="0"
     id="path3516"
     style="fill:#6b6e71;fill-opacity:1;fill-rule:nonzero;stroke:none"
     d="m -168.30963,49.825878 0.41725,0 0,2.413521 -0.35508,0 -1.33095,-1.717112 0,1.717112 -0.41725,0 0,-2.413521 0.39304,0 1.29299,1.668991 0,-1.668991 z" /><path
     inkscape:connector-curvature="0"
     id="path3520"
     style="fill:#6b6e71;fill-opacity:1;fill-rule:nonzero;stroke:none"
     d="m -165.65557,49.825878 0.41725,0 0,2.413521 -0.35508,0 -1.33095,-1.717112 0,1.717112 -0.41724,0 0,-2.413521 0.39303,0 1.29299,1.668991 0,-1.668991 z" /><path
     inkscape:connector-curvature="0"
     id="path3524"
     style="fill:#6b6e71;fill-opacity:1;fill-rule:nonzero;stroke:none"
     d="m -163.53603,50.174113 c -0.47942,0 -0.81387,0.382577 -0.81387,0.855119 0,0.472243 0.34133,0.861993 0.82074,0.861993 0.47912,0 0.81387,-0.382576 0.81387,-0.855118 0,-0.472244 -0.34133,-0.861994 -0.82074,-0.861994 m 0,2.106862 c -0.74124,0 -1.25862,-0.562208 -1.25862,-1.244868 0,-0.682362 0.52425,-1.251743 1.26549,-1.251743 0.74124,0 1.25832,0.562208 1.25832,1.244868 0,0.68266 -0.52395,1.251743 -1.26519,1.251743" /><path
     inkscape:connector-curvature="0"
     id="path3528"
     style="fill:#6b6e71;fill-opacity:1;fill-rule:nonzero;stroke:none"
     d="m -160.26258,49.825878 0.45849,0 -1.00336,2.430856 -0.37212,0 -1.00337,-2.430856 0.46896,0 0.72749,1.854899 0.72391,-1.854899 z" /><path
     inkscape:connector-curvature="0"
     id="path3532"
     style="fill:#6b6e71;fill-opacity:1;fill-rule:nonzero;stroke:none"
     d="m -158.75998,50.315667 -0.41366,0.965109 0.83091,0 -0.41725,-0.965109 z m 1.26519,1.923643 -0.44803,0 -0.24479,-0.582533 -1.14115,0 -0.24838,0.582533 -0.43429,0 1.06166,-2.430557 0.39333,0 1.06165,2.430557 z" /><path
     inkscape:connector-curvature="0"
     id="path3536"
     style="fill:#6b6e71;fill-opacity:1;fill-rule:nonzero;stroke:none"
     d="m -156.44432,52.239458 -0.42741,0 0,-2.020483 -0.76545,0 0,-0.393037 1.95832,0 0,0.393037 -0.76546,0 0,2.020483 z" /><path
     d="m -154.85205,52.23937 -0.42412,0 0,-2.413521 0.42412,0 0,2.413521 z"
     style="fill:#6b6e71;fill-opacity:1;fill-rule:nonzero;stroke:none"
     id="path3538"
     inkscape:connector-curvature="0" /><path
     inkscape:connector-curvature="0"
     id="path3542"
     style="fill:#6b6e71;fill-opacity:1;fill-rule:nonzero;stroke:none"
     d="m -152.56302,49.825878 0.4585,0 -1.00337,2.430856 -0.37211,0 -1.00337,-2.430856 0.46895,0 0.7275,1.854899 0.7239,-1.854899 z" /><path
     inkscape:connector-curvature="0"
     id="path3546"
     style="fill:#6b6e71;fill-opacity:1;fill-rule:nonzero;stroke:none"
     d="m -149.97094,50.205346 -1.36532,0 0,0.627665 1.2102,0 0,0.37899 -1.2102,0 0,0.648288 1.38266,0 0,0.379289 -1.80678,0 0,-2.41382 1.78944,0 0,0.379588 z" /><path
     inkscape:connector-curvature="0"
     id="path3550"
     style="fill:#6b6e71;fill-opacity:1;fill-rule:nonzero;stroke:none"
     d="m -147.62404,50.839586 c 0.5102,0.124039 0.77591,0.30666 0.77591,0.710158 0,0.455207 -0.35538,0.724206 -0.86229,0.724206 -0.36853,0 -0.71703,-0.127625 -1.00665,-0.386163 l 0.25525,-0.303372 c 0.23104,0.199957 0.46208,0.313833 0.76186,0.313833 0.26213,0 0.42771,-0.120751 0.42771,-0.306958 0,-0.175746 -0.0965,-0.265413 -0.54487,-0.372415 -0.51379,-0.12075 -0.80341,-0.275574 -0.80341,-0.723906 0,-0.420835 0.34491,-0.703583 0.82403,-0.703583 0.35179,0 0.63095,0.107002 0.87604,0.30367 l -0.22775,0.320408 c -0.21729,-0.161997 -0.43429,-0.248077 -0.65516,-0.248077 -0.24838,0 -0.39304,0.127625 -0.39304,0.289623 0,0.189495 0.11029,0.272287 0.57237,0.382576" /><path
     inkscape:connector-curvature="0"
     id="path3554"
     style="fill:#6b6e71;fill-opacity:1;fill-rule:nonzero;stroke:none"
     d="m -145.26638,50.174113 c -0.47942,0 -0.81357,0.382577 -0.81357,0.855119 0,0.472243 0.34103,0.861993 0.82044,0.861993 0.47912,0 0.81387,-0.382576 0.81387,-0.855118 0,-0.472244 -0.34133,-0.861994 -0.82074,-0.861994 m 0,2.106862 c -0.74124,0 -1.25832,-0.562208 -1.25832,-1.244868 0,-0.682362 0.52395,-1.251743 1.26519,-1.251743 0.74125,0 1.25832,0.562208 1.25832,1.244868 0,0.68266 -0.52395,1.251743 -1.26519,1.251743" /><path
     inkscape:connector-curvature="0"
     id="path3558"
     style="fill:#6b6e71;fill-opacity:1;fill-rule:nonzero;stroke:none"
     d="m -143.55725,49.825878 0.42412,0 0,2.027357 1.26878,0 0,0.386164 -1.6929,0 0,-2.413521 z" /><path
     inkscape:connector-curvature="0"
     id="path3562"
     style="fill:#6b6e71;fill-opacity:1;fill-rule:nonzero;stroke:none"
     d="m -139.53278,51.194816 c 0,0.720619 -0.40679,1.082573 -1.03774,1.082573 -0.62767,0 -1.02758,-0.361954 -1.02758,-1.06195 l 0,-1.38953 0.42412,0 0,1.372494 c 0,0.448033 0.23104,0.689236 0.61033,0.689236 0.3757,0 0.60674,-0.227454 0.60674,-0.6722 l 0,-1.38953 0.42413,0 0,1.368907 z" /><path
     inkscape:connector-curvature="0"
     id="path3566"
     style="fill:#6b6e71;fill-opacity:1;fill-rule:nonzero;stroke:none"
     d="m -137.99937,52.239458 -0.42741,0 0,-2.020483 -0.76545,0 0,-0.393037 1.95831,0 0,0.393037 -0.76545,0 0,2.020483 z" /><path
     d="m -136.40707,52.23937 -0.42412,0 0,-2.413521 0.42412,0 0,2.413521 z"
     style="fill:#6b6e71;fill-opacity:1;fill-rule:nonzero;stroke:none"
     id="path3568"
     inkscape:connector-curvature="0" /><path
     inkscape:connector-curvature="0"
     id="path3572"
     style="fill:#6b6e71;fill-opacity:1;fill-rule:nonzero;stroke:none"
     d="m -134.68007,50.174113 c -0.47941,0 -0.81357,0.382577 -0.81357,0.855119 0,0.472243 0.34103,0.861993 0.82045,0.861993 0.47912,0 0.81387,-0.382576 0.81387,-0.855118 0,-0.472244 -0.34133,-0.861994 -0.82075,-0.861994 m 0,2.106862 c -0.74124,0 -1.25832,-0.562208 -1.25832,-1.244868 0,-0.682362 0.52395,-1.251743 1.2652,-1.251743 0.74124,0 1.25832,0.562208 1.25832,1.244868 0,0.68266 -0.52395,1.251743 -1.2652,1.251743" /><path
     inkscape:connector-curvature="0"
     id="path3576"
     style="fill:#6b6e71;fill-opacity:1;fill-rule:nonzero;stroke:none"
     d="m -131.28488,49.825878 0.41725,0 0,2.413521 -0.35538,0 -1.33065,-1.717112 0,1.717112 -0.41725,0 0,-2.413521 0.39304,0 1.29299,1.668991 0,-1.668991 z" /><path
     inkscape:connector-curvature="0"
     id="path3580"
     style="fill:#6b6e71;fill-opacity:1;fill-rule:nonzero;stroke:none"
     d="m -129.38589,50.839586 c 0.5102,0.124039 0.77591,0.30666 0.77591,0.710158 0,0.455207 -0.35538,0.724206 -0.86229,0.724206 -0.36883,0 -0.71704,-0.127625 -1.00666,-0.386163 l 0.25525,-0.303372 c 0.23104,0.199957 0.46208,0.313833 0.76187,0.313833 0.26212,0 0.42771,-0.120751 0.42771,-0.306958 0,-0.175746 -0.0965,-0.265413 -0.54488,-0.372415 -0.51378,-0.12075 -0.80341,-0.275574 -0.80341,-0.723906 0,-0.420835 0.34492,-0.703583 0.82404,-0.703583 0.35179,0 0.63095,0.107002 0.87574,0.30367 l -0.22745,0.320408 c -0.2173,-0.161997 -0.43459,-0.248077 -0.65517,-0.248077 -0.24807,0 -0.39304,0.127625 -0.39304,0.289623 0,0.189495 0.1103,0.272287 0.57238,0.382576" /><path
     inkscape:connector-curvature="0"
     id="path3584"
     style="fill:#6b6e71;fill-opacity:1;fill-rule:nonzero;stroke:none"
     d="m -169.43324,55.35211 c 0,-0.206831 -0.1623,-0.327881 -0.49646,-0.327881 l -0.6725,0 0,0.662037 0.70329,0 c 0.28992,0 0.46567,-0.113577 0.46567,-0.334156 m -0.1345,-1.017116 c 0,-0.196669 -0.15184,-0.310246 -0.42413,-0.310246 l -0.61033,0 0,0.641115 0.57925,0 c 0.27229,0 0.45521,-0.106703 0.45521,-0.330869 m 0.42412,-0.06904 c 0,0.296497 -0.16559,0.448033 -0.34492,0.541286 0.28275,0.09654 0.47942,0.258538 0.47942,0.589407 0,0.434883 -0.35538,0.665624 -0.89308,0.665624 l -1.11724,0 0,-2.413521 1.08257,0 c 0.48629,0 0.79325,0.237915 0.79325,0.617204" /><path
     inkscape:connector-curvature="0"
     id="path3588"
     style="fill:#6b6e71;fill-opacity:1;fill-rule:nonzero;stroke:none"
     d="m -167.56519,56.062268 -0.42771,0 0,-0.95166 -0.95854,-1.461861 0.50004,0 0.67579,1.068823 0.68266,-1.068823 0.48599,0 -0.95823,1.4514 0,0.962121 z" /><path
     inkscape:connector-curvature="0"
     id="path3592"
     style="fill:#6b6e71;fill-opacity:1;fill-rule:nonzero;stroke:none"
     d="m -164.19015,53.996891 c -0.47942,0 -0.81387,0.382876 -0.81387,0.855119 0,0.472243 0.34133,0.861993 0.82074,0.861993 0.47912,0 0.81388,-0.382576 0.81388,-0.855118 0,-0.472243 -0.34133,-0.861994 -0.82075,-0.861994 m 0,2.106862 c -0.74124,0 -1.25832,-0.562208 -1.25832,-1.244868 0,-0.682362 0.52395,-1.251445 1.26519,-1.251445 0.74125,0 1.25832,0.56191 1.25832,1.24457 0,0.682959 -0.52395,1.251743 -1.26519,1.251743" /><path
     inkscape:connector-curvature="0"
     id="path3596"
     style="fill:#6b6e71;fill-opacity:1;fill-rule:nonzero;stroke:none"
     d="m -161.56379,54.03485 -0.49317,0 0,0.868868 0.49317,0 c 0.32071,0 0.52066,-0.175746 0.52066,-0.434284 0,-0.286335 -0.20354,-0.434584 -0.52066,-0.434584 m -0.0137,1.251444 -0.47942,0 0,0.775914 -0.42412,0 0,-2.413521 0.95166,0 c 0.56221,0 0.91729,0.317419 0.91729,0.810285 0,0.544873 -0.43458,0.827322 -0.96541,0.827322" /><path
     inkscape:connector-curvature="0"
     id="path3600"
     style="fill:#6b6e71;fill-opacity:1;fill-rule:nonzero;stroke:none"
     d="m -158.45802,54.028127 -1.36532,0 0,0.627365 1.2102,0 0,0.379289 -1.2102,0 0,0.648286 1.38266,0 0,0.379289 -1.80678,0 0,-2.413817 1.78944,0 0,0.379588 z" /><path
     inkscape:connector-curvature="0"
     id="path3604"
     style="fill:#6b6e71;fill-opacity:1;fill-rule:nonzero;stroke:none"
     d="m -156.32099,53.648687 0.41724,0 0,2.413521 -0.35508,0 -1.33094,-1.717112 0,1.717112 -0.41725,0 0,-2.413521 0.39304,0 1.29299,1.668692 0,-1.668692 z" /><path
     inkscape:connector-curvature="0"
     id="path3608"
     style="fill:#6b6e71;fill-opacity:1;fill-rule:nonzero;stroke:none"
     d="m -153.45705,54.662396 c 0.5102,0.124038 0.77591,0.306659 0.77591,0.710456 0,0.454908 -0.35537,0.723907 -0.86199,0.723907 -0.36883,0 -0.71733,-0.127625 -1.00695,-0.386163 l 0.25525,-0.303371 c 0.23104,0.199956 0.46208,0.313832 0.76186,0.313832 0.26213,0 0.42771,-0.120751 0.42771,-0.306958 0,-0.175746 -0.0965,-0.265413 -0.54487,-0.372116 -0.51379,-0.121049 -0.80341,-0.276172 -0.80341,-0.724205 0,-0.420835 0.34491,-0.703583 0.82403,-0.703583 0.35179,0 0.63095,0.107002 0.87604,0.30367 l -0.22775,0.320408 c -0.21729,-0.161997 -0.43428,-0.248077 -0.65516,-0.248077 -0.24838,0 -0.39304,0.127626 -0.39304,0.289623 0,0.189495 0.11029,0.272287 0.57237,0.382577" /><path
     inkscape:connector-curvature="0"
     id="path3612"
     style="fill:#6b6e71;fill-opacity:1;fill-rule:nonzero;stroke:none"
     d="m -151.09936,53.996891 c -0.47942,0 -0.81357,0.382876 -0.81357,0.855119 0,0.472243 0.34103,0.861993 0.82044,0.861993 0.47912,0 0.81388,-0.382576 0.81388,-0.855118 0,-0.472243 -0.34133,-0.861994 -0.82075,-0.861994 m 0,2.106862 c -0.74124,0 -1.25832,-0.562208 -1.25832,-1.244868 0,-0.682362 0.52395,-1.251445 1.26519,-1.251445 0.74125,0 1.25832,0.56191 1.25832,1.24457 0,0.682959 -0.52395,1.251743 -1.26519,1.251743" /><path
     inkscape:connector-curvature="0"
     id="path3616"
     style="fill:#6b6e71;fill-opacity:1;fill-rule:nonzero;stroke:none"
     d="m -147.36281,55.017625 c 0,0.720617 -0.40679,1.08257 -1.03774,1.08257 -0.62767,0 -1.02758,-0.361953 -1.02758,-1.061946 l 0,-1.389531 0.42412,0 0,1.372494 c 0,0.448031 0.23104,0.689233 0.61033,0.689233 0.3757,0 0.60674,-0.227155 0.60674,-0.672196 l 0,-1.389531 0.42413,0 0,1.368907 z" /><path
     inkscape:connector-curvature="0"
     id="path3620"
     style="fill:#6b6e71;fill-opacity:1;fill-rule:nonzero;stroke:none"
     d="m -145.80868,54.03485 -0.61721,0 0,0.810286 0.62079,0 c 0.30337,0 0.49646,-0.158411 0.49646,-0.406787 0,-0.265412 -0.18621,-0.403499 -0.50004,-0.403499 m 0.50691,2.027358 -0.59329,-0.841071 -0.53083,0 0,0.841071 -0.42412,0 0,-2.413521 1.0757,0 c 0.55533,0 0.89666,0.293209 0.89666,0.765751 0,0.399613 -0.23791,0.641115 -0.57595,0.734368 l 0.65187,0.913402 -0.50004,0 z" /><path
     inkscape:connector-curvature="0"
     id="path3624"
     style="fill:#6b6e71;fill-opacity:1;fill-rule:nonzero;stroke:none"
     d="m -143.30637,56.103722 c -0.70328,0 -1.22753,-0.548161 -1.22753,-1.244866 0,-0.689535 0.51379,-1.251444 1.24487,-1.251444 0.44475,0 0.71375,0.155123 0.94479,0.375702 l -0.27259,0.313832 c -0.19308,-0.179332 -0.39991,-0.300083 -0.67579,-0.300083 -0.46208,0 -0.79653,0.379588 -0.79653,0.855417 0,0.475529 0.33445,0.861692 0.79653,0.861692 0.2965,0 0.48629,-0.120452 0.69313,-0.313832 l 0.27228,0.275873 c -0.25166,0.262125 -0.52754,0.427709 -0.97916,0.427709" /><path
     inkscape:connector-curvature="0"
     id="path3628"
     style="fill:#6b6e71;fill-opacity:1;fill-rule:nonzero;stroke:none"
     d="m -140.16251,54.028127 -1.36532,0 0,0.627365 1.2102,0 0,0.379289 -1.2102,0 0,0.648286 1.38266,0 0,0.379289 -1.80678,0 0,-2.413817 1.78944,0 0,0.379588 z" /><path
     inkscape:connector-curvature="0"
     id="path3632"
     style="fill:#6b6e71;fill-opacity:1;fill-rule:nonzero;stroke:none"
     d="m -136.95706,54.028127 -1.36532,0 0,0.627365 1.2102,0 0,0.379289 -1.2102,0 0,0.648286 1.38266,0 0,0.379289 -1.80678,0 0,-2.413817 1.78944,0 0,0.379588 z" /><path
     inkscape:connector-curvature="0"
     id="path3636"
     style="fill:#6b6e71;fill-opacity:1;fill-rule:nonzero;stroke:none"
     d="m -134.93051,56.062268 -0.63454,-0.913701 -0.63782,0.913701 -0.48599,0 0.87903,-1.227235 -0.84466,-1.186286 0.50004,0 0.59987,0.865281 0.60345,-0.865281 0.48599,0 -0.84107,1.179113 0.87544,1.234408 -0.49974,0 z" /><path
     inkscape:connector-curvature="0"
     id="path3640"
     style="fill:#6b6e71;fill-opacity:1;fill-rule:nonzero;stroke:none"
     d="m -133.14522,54.03485 -0.49316,0 0,0.868868 0.49316,0 c 0.32071,0 0.52067,-0.175746 0.52067,-0.434284 0,-0.286335 -0.20355,-0.434584 -0.52067,-0.434584 m -0.0138,1.251444 -0.47941,0 0,0.775914 -0.42412,0 0,-2.413521 0.95166,0 c 0.5622,0 0.91728,0.317419 0.91728,0.810285 0,0.544873 -0.43458,0.827322 -0.96541,0.827322" /><path
     inkscape:connector-curvature="0"
     id="path3644"
     style="fill:#6b6e71;fill-opacity:1;fill-rule:nonzero;stroke:none"
     d="m -130.03941,54.028127 -1.36532,0 0,0.627365 1.2102,0 0,0.379289 -1.2102,0 0,0.648286 1.38265,0 0,0.379289 -1.80677,0 0,-2.413817 1.78944,0 0,0.379588 z" /><path
     inkscape:connector-curvature="0"
     id="path3648"
     style="fill:#6b6e71;fill-opacity:1;fill-rule:nonzero;stroke:none"
     d="m -128.54718,54.03485 -0.61721,0 0,0.810286 0.62079,0 c 0.30337,0 0.49646,-0.158411 0.49646,-0.406787 0,-0.265412 -0.18621,-0.403499 -0.50004,-0.403499 m 0.50691,2.027358 -0.59299,-0.841071 -0.53113,0 0,0.841071 -0.42412,0 0,-2.413521 1.0757,0 c 0.55533,0 0.89666,0.293209 0.89666,0.765751 0,0.399613 -0.23791,0.641115 -0.57595,0.734368 l 0.65157,0.913402 -0.49974,0 z" /><path
     inkscape:connector-curvature="0"
     id="path3652"
     style="fill:#6b6e71;fill-opacity:1;fill-rule:nonzero;stroke:none"
     d="m -126.15563,56.062268 -0.42741,0 0,-2.020484 -0.76545,0 0,-0.393037 1.95831,0 0,0.393037 -0.76545,0 0,2.020484 z" /><path
     inkscape:connector-curvature="0"
     id="path3656"
     style="fill:#6b6e71;fill-opacity:1;fill-rule:nonzero;stroke:none"
     d="m -124.13231,54.662396 c 0.5102,0.124038 0.77592,0.306659 0.77592,0.710456 0,0.454908 -0.35538,0.723907 -0.8623,0.723907 -0.36882,0 -0.71703,-0.127625 -1.00665,-0.386163 l 0.25525,-0.303371 c 0.23104,0.199956 0.46208,0.313832 0.76186,0.313832 0.26213,0 0.42771,-0.120751 0.42771,-0.306958 0,-0.175746 -0.0965,-0.265413 -0.54487,-0.372116 -0.51379,-0.121049 -0.80341,-0.276172 -0.80341,-0.724205 0,-0.420835 0.34492,-0.703583 0.82403,-0.703583 0.35179,0 0.63096,0.107002 0.87575,0.30367 l -0.22746,0.320408 c -0.21729,-0.161997 -0.43458,-0.248077 -0.65516,-0.248077 -0.24808,0 -0.39304,0.127626 -0.39304,0.289623 0,0.189495 0.11029,0.272287 0.57237,0.382577" /><g
     id="g20492"
     transform="matrix(1.0974891,0,0,1.0974891,-2.0087294,-20.580997)"><g
       transform="matrix(0.18459326,0,0,-0.18459326,6.5305375,181.82578)"
       id="g20176"><g
         clip-path="url(#clipPath20180)"
         id="g20178"><g
           transform="translate(122.8535,203.2275)"
           id="g20184"><path
             inkscape:connector-curvature="0"
             id="path20186"
             style="fill:#f47216;fill-opacity:1;fill-rule:nonzero;stroke:none"
             d="m 0,0 0,21.764 c 0,0 -5.701,-1.53 -13.73,-1.53 -6.225,0 -8.971,4.512 -8.971,10.917 l 0,41.924 20.285,0 0,23.798 -20.285,0 0,25.082 -27.826,0 0,-25.082 -11.717,0 0,-23.798 11.717,0 0,-46.5 c 0,-22.699 11.533,-29.473 28.559,-29.473 C -6.257,-2.898 0,0 0,0" /></g><g
           transform="translate(209.8418,250.4902)"
           id="g20188"><path
             inkscape:connector-curvature="0"
             id="path20190"
             style="fill:#f47216;fill-opacity:1;fill-rule:nonzero;stroke:none"
             d="m 0,0 c 0,-14.463 -9.519,-26.728 -25.445,-26.728 -15.379,0 -25.812,12.63 -25.812,27.096 l 0,0.365 c 0,14.461 9.519,26.726 25.445,26.726 C -10.433,27.459 0,14.827 0,0.368 L 0,0 Z m 27.462,0.368 0,0.365 c 0,28.192 -22.52,50.709 -52.907,50.709 -30.573,0 -53.272,-22.883 -53.272,-51.074 l 0,-0.368 c 0,-28.193 22.516,-50.709 52.905,-50.709 30.573,0 53.274,22.883 53.274,51.077" /></g><g
           transform="translate(503.1123,391.9004)"
           id="g20192"><path
             inkscape:connector-curvature="0"
             id="path20194"
             style="fill:#6b6e71;fill-opacity:1;fill-rule:nonzero;stroke:none"
             d="m 0,0 c 0,-16.475 -10.983,-27.092 -23.981,-27.092 -12.999,0 -23.801,10.801 -23.801,27.092 l 0,0.367 c 0,16.294 10.802,27.095 23.801,27.095 C -10.983,27.462 0,16.661 0,0.367 L 0,0 Z m 25.044,0 0,0.367 c 0,32.77 -21.786,50.712 -44.669,50.712 -14.461,0 -23.797,-6.775 -30.569,-15.927 l 0,14.095 -26.16,0 0,-127.416 26.16,0 0,42.106 c 6.588,-7.872 15.741,-14.646 30.569,-14.646 23.25,0 44.669,17.941 44.669,50.709" /></g><g
           transform="translate(697.3643,250.8584)"
           id="g20196"><path
             inkscape:connector-curvature="0"
             id="path20198"
             style="fill:#6b6e71;fill-opacity:1;fill-rule:nonzero;stroke:none"
             d="m 0,0 c 0,-16.479 -10.983,-27.096 -23.981,-27.096 -12.999,0 -23.799,10.8 -23.799,27.096 l 0,0.365 c 0,16.293 10.8,27.093 23.799,27.093 C -10.983,27.458 0,16.658 0,0.365 L 0,0 Z m 25.044,0 0,0.365 c 0,32.768 -21.784,50.709 -44.667,50.709 -14.463,0 -23.801,-6.774 -30.573,-15.927 l 0,14.095 -26.157,0 0,-127.414 26.157,0 0,42.106 c 6.591,-7.872 15.743,-14.645 30.573,-14.645 23.25,0 44.667,17.94 44.667,50.711" /></g><g
           transform="translate(147.0981,358.7656)"
           id="g20200"><path
             inkscape:connector-curvature="0"
             id="path20202"
             style="fill:#6b6e71;fill-opacity:1;fill-rule:nonzero;stroke:none"
             d="M 0,0 -16.293,16.478 C -23.067,10.069 -29.473,6.042 -38.81,6.042 c -15.194,0 -24.898,12.083 -24.898,27.093 l 0,0.366 c 0,14.464 9.885,26.729 23.799,26.729 9.885,0 16.111,-4.209 22.334,-10.801 L -0.55,67.736 c -9.153,10.251 -20.685,16.477 -39.177,16.477 -30.022,0 -51.44,-23.067 -51.44,-51.078 l 0,-0.364 c 0,-28.01 21.601,-50.711 51.076,-50.711 19.588,0 30.57,7.507 40.091,17.94" /></g><g
           transform="translate(341.3506,217.7207)"
           id="g20204"><path
             inkscape:connector-curvature="0"
             id="path20206"
             style="fill:#6b6e71;fill-opacity:1;fill-rule:nonzero;stroke:none"
             d="M 0,0 -16.294,16.476 C -23.066,10.069 -29.475,6.042 -38.811,6.042 c -15.194,0 -24.897,12.081 -24.897,27.096 l 0,0.365 c 0,14.461 9.885,26.726 23.798,26.726 9.888,0 16.111,-4.209 22.335,-10.799 l 17.026,18.306 c -9.155,10.252 -20.688,16.476 -39.177,16.476 -30.024,0 -51.442,-23.067 -51.442,-51.074 l 0,-0.368 c 0,-28.01 21.602,-50.709 51.076,-50.709 19.588,0 30.572,7.503 40.092,17.939" /></g><g
           transform="translate(196.1055,360.937)"
           id="g20208"><path
             inkscape:connector-curvature="0"
             id="path20210"
             style="fill:#6b6e71;fill-opacity:1;fill-rule:nonzero;stroke:none"
             d="m 0,0 c -7.891,0 -12.71,4.131 -12.71,9.376 0,6.035 2.919,9.167 11.6,10.445 18.106,2.665 22.555,5.862 22.555,5.862 C 24.367,2.737 8.422,0 0,0 m 48.419,-17.875 c 0,0 -0.159,47.188 -0.159,63.712 0,19.543 -15.182,36.226 -43.78,36.226 -25.718,0 -39.845,-16.467 -39.845,-16.467 l 16.48,-17.439 c 0,0 6.954,9.93 22.531,9.93 11.811,0 17.521,-3.477 17.521,-9.457 0,-16.41 -60.153,2.505 -60.153,-41.084 0,-21.13 15.433,-27.646 29.89,-27.646 22.245,0 30.263,12.546 30.263,12.546 l -0.23,-10.287 27.482,-0.034 z" /></g><g
           transform="translate(390.3589,219.8926)"
           id="g20212"><path
             inkscape:connector-curvature="0"
             id="path20214"
             style="fill:#6b6e71;fill-opacity:1;fill-rule:nonzero;stroke:none"
             d="m 0,0 c -7.891,0 -12.712,4.132 -12.712,9.374 0,6.038 2.919,9.168 11.599,10.445 18.108,2.663 22.559,5.863 22.559,5.863 C 24.364,2.733 8.42,0 0,0 m 48.418,-17.876 c 0,0 -0.158,47.189 -0.158,63.714 0,19.541 -15.184,36.224 -43.781,36.224 -25.719,0 -39.845,-16.466 -39.845,-16.466 l 16.481,-17.44 c 0,0 6.953,9.929 22.529,9.929 11.813,0 17.523,-3.476 17.523,-9.456 0,-16.412 -60.154,2.504 -60.154,-41.084 0,-21.132 15.432,-27.645 29.889,-27.645 22.245,0 30.265,12.543 30.265,12.543 l -0.233,-10.287 27.484,-0.032 z" /></g><g
           transform="translate(410.9248,343.0234)"
           id="g20216"><path
             inkscape:connector-curvature="0"
             id="path20218"
             style="fill:#6b6e71;fill-opacity:1;fill-rule:nonzero;stroke:none"
             d="m 0,0 0,63.89 c 0,23.616 -12.45,36.066 -33.137,36.066 -13.363,0 -23.614,-5.494 -32.218,-15.563 -5.127,9.887 -14.83,15.563 -27.644,15.563 -14.097,0 -22.517,-7.508 -28.925,-15.746 l 0,13.914 -27.826,0 0,-98.124 27.826,0 0,54.737 c 0,13.18 6.408,19.955 16.842,19.955 10.436,0 16.293,-6.775 16.293,-19.955 l 0,-54.737 27.827,0 0,54.737 c 0,13.18 6.407,19.955 16.842,19.955 10.434,0 16.292,-6.775 16.292,-19.955 L -27.828,0 0,0 Z" /></g><g
           transform="translate(605.1768,201.9756)"
           id="g20220"><path
             inkscape:connector-curvature="0"
             id="path20222"
             style="fill:#6b6e71;fill-opacity:1;fill-rule:nonzero;stroke:none"
             d="m 0,0 0,63.893 c 0,23.614 -12.45,36.064 -33.135,36.064 -13.365,0 -23.616,-5.493 -32.22,-15.561 -5.128,9.886 -14.828,15.561 -27.643,15.561 -14.097,0 -22.518,-7.505 -28.927,-15.745 l 0,13.913 -27.826,0 0,-98.125 27.826,0 0,54.738 c 0,13.181 6.409,19.955 16.845,19.955 10.433,0 16.29,-6.774 16.29,-19.955 l 0,-54.738 27.828,0 0,54.738 c 0,13.181 6.407,19.955 16.842,19.955 10.433,0 16.294,-6.774 16.294,-19.955 L -27.826,0 0,0 Z" /></g></g></g><g
       transform="matrix(1.840785,0,0,1.840785,-47.383679,-139.71881)"
       id="g20425"><path
         d="m 35.34603,161.80741 -0.42412,0 0,-2.41352 0.42412,0 0,2.41352 z"
         style="clip-rule:evenodd;fill:#6b6e71;fill-opacity:1;fill-rule:nonzero;stroke:none;stroke-miterlimit:1.41420996"
         id="path3512-4"
         inkscape:connector-curvature="0" /><path
         inkscape:connector-curvature="0"
         id="path3516-8"
         style="clip-rule:evenodd;fill:#6b6e71;fill-opacity:1;fill-rule:nonzero;stroke:none;stroke-miterlimit:1.41420996"
         d="m 37.60727,159.39392 0.41725,0 0,2.41352 -0.35508,0 -1.33095,-1.71711 0,1.71711 -0.41725,0 0,-2.41352 0.39304,0 1.29299,1.66899 0,-1.66899 z" /><path
         inkscape:connector-curvature="0"
         id="path3520-5"
         style="clip-rule:evenodd;fill:#6b6e71;fill-opacity:1;fill-rule:nonzero;stroke:none;stroke-miterlimit:1.41420996"
         d="m 40.26133,159.39392 0.41725,0 0,2.41352 -0.35508,0 -1.33095,-1.71711 0,1.71711 -0.41724,0 0,-2.41352 0.39303,0 1.29299,1.66899 0,-1.66899 z" /><path
         inkscape:connector-curvature="0"
         id="path3524-1"
         style="clip-rule:evenodd;fill:#6b6e71;fill-opacity:1;fill-rule:nonzero;stroke:none;stroke-miterlimit:1.41420996"
         d="m 42.38087,159.74215 c -0.47942,0 -0.81387,0.38258 -0.81387,0.85512 0,0.47225 0.34133,0.862 0.82074,0.862 0.47912,0 0.81387,-0.38258 0.81387,-0.85512 0,-0.47225 -0.34133,-0.862 -0.82074,-0.862 m 0,2.10687 c -0.74124,0 -1.25862,-0.56221 -1.25862,-1.24487 0,-0.68236 0.52425,-1.25175 1.26549,-1.25175 0.74124,0 1.25832,0.56221 1.25832,1.24487 0,0.68266 -0.52395,1.25175 -1.26519,1.25175" /><path
         inkscape:connector-curvature="0"
         id="path3528-2"
         style="clip-rule:evenodd;fill:#6b6e71;fill-opacity:1;fill-rule:nonzero;stroke:none;stroke-miterlimit:1.41420996"
         d="m 45.65432,159.39392 0.45849,0 -1.00336,2.43086 -0.37212,0 -1.00337,-2.43086 0.46896,0 0.72749,1.8549 0.72391,-1.8549 z" /><path
         inkscape:connector-curvature="0"
         id="path3532-9"
         style="clip-rule:evenodd;fill:#6b6e71;fill-opacity:1;fill-rule:nonzero;stroke:none;stroke-miterlimit:1.41420996"
         d="m 47.15692,159.88371 -0.41366,0.96511 0.83091,0 -0.41725,-0.96511 z m 1.26519,1.92364 -0.44803,0 -0.24479,-0.58253 -1.14115,0 -0.24838,0.58253 -0.43429,0 1.06166,-2.43056 0.39333,0 1.06165,2.43056 z" /><path
         inkscape:connector-curvature="0"
         id="path3536-7"
         style="clip-rule:evenodd;fill:#6b6e71;fill-opacity:1;fill-rule:nonzero;stroke:none;stroke-miterlimit:1.41420996"
         d="m 49.47258,161.8075 -0.42741,0 0,-2.02048 -0.76545,0 0,-0.39304 1.95832,0 0,0.39304 -0.76546,0 0,2.02048 z" /><path
         d="m 51.06485,161.80741 -0.42412,0 0,-2.41352 0.42412,0 0,2.41352 z"
         style="clip-rule:evenodd;fill:#6b6e71;fill-opacity:1;fill-rule:nonzero;stroke:none;stroke-miterlimit:1.41420996"
         id="path3538-3"
         inkscape:connector-curvature="0" /><path
         inkscape:connector-curvature="0"
         id="path3542-8"
         style="clip-rule:evenodd;fill:#6b6e71;fill-opacity:1;fill-rule:nonzero;stroke:none;stroke-miterlimit:1.41420996"
         d="m 53.35388,159.39392 0.4585,0 -1.00337,2.43086 -0.37211,0 -1.00337,-2.43086 0.46895,0 0.7275,1.8549 0.7239,-1.8549 z" /><path
         inkscape:connector-curvature="0"
         id="path3546-0"
         style="clip-rule:evenodd;fill:#6b6e71;fill-opacity:1;fill-rule:nonzero;stroke:none;stroke-miterlimit:1.41420996"
         d="m 55.94596,159.77339 -1.36532,0 0,0.62766 1.2102,0 0,0.37899 -1.2102,0 0,0.64829 1.38266,0 0,0.37929 -1.80678,0 0,-2.41382 1.78944,0 0,0.37959 z" /><path
         inkscape:connector-curvature="0"
         id="path3550-9"
         style="clip-rule:evenodd;fill:#6b6e71;fill-opacity:1;fill-rule:nonzero;stroke:none;stroke-miterlimit:1.41420996"
         d="m 58.29286,160.40763 c 0.5102,0.12404 0.77591,0.30666 0.77591,0.71016 0,0.4552 -0.35538,0.7242 -0.86229,0.7242 -0.36853,0 -0.71703,-0.12762 -1.00665,-0.38616 l 0.25525,-0.30337 c 0.23104,0.19995 0.46208,0.31383 0.76186,0.31383 0.26213,0 0.42771,-0.12075 0.42771,-0.30696 0,-0.17574 -0.0965,-0.26541 -0.54487,-0.37241 -0.51379,-0.12075 -0.80341,-0.27558 -0.80341,-0.72391 0,-0.42084 0.34491,-0.70358 0.82403,-0.70358 0.35179,0 0.63095,0.107 0.87604,0.30367 l -0.22775,0.3204 c -0.21729,-0.16199 -0.43429,-0.24807 -0.65516,-0.24807 -0.24838,0 -0.39304,0.12762 -0.39304,0.28962 0,0.1895 0.11029,0.27229 0.57237,0.38258" /><path
         inkscape:connector-curvature="0"
         id="path3554-2"
         style="clip-rule:evenodd;fill:#6b6e71;fill-opacity:1;fill-rule:nonzero;stroke:none;stroke-miterlimit:1.41420996"
         d="m 60.65052,159.74215 c -0.47942,0 -0.81357,0.38258 -0.81357,0.85512 0,0.47225 0.34103,0.862 0.82044,0.862 0.47912,0 0.81387,-0.38258 0.81387,-0.85512 0,-0.47225 -0.34133,-0.862 -0.82074,-0.862 m 0,2.10687 c -0.74124,0 -1.25832,-0.56221 -1.25832,-1.24487 0,-0.68236 0.52395,-1.25175 1.26519,-1.25175 0.74125,0 1.25832,0.56221 1.25832,1.24487 0,0.68266 -0.52395,1.25175 -1.26519,1.25175" /><path
         inkscape:connector-curvature="0"
         id="path3558-3"
         style="clip-rule:evenodd;fill:#6b6e71;fill-opacity:1;fill-rule:nonzero;stroke:none;stroke-miterlimit:1.41420996"
         d="m 62.35965,159.39392 0.42412,0 0,2.02736 1.26878,0 0,0.38616 -1.6929,0 0,-2.41352 z" /><path
         inkscape:connector-curvature="0"
         id="path3562-1"
         style="clip-rule:evenodd;fill:#6b6e71;fill-opacity:1;fill-rule:nonzero;stroke:none;stroke-miterlimit:1.41420996"
         d="m 66.38412,160.76286 c 0,0.72062 -0.40679,1.08257 -1.03774,1.08257 -0.62767,0 -1.02758,-0.36195 -1.02758,-1.06195 l 0,-1.38953 0.42412,0 0,1.37249 c 0,0.44804 0.23104,0.68924 0.61033,0.68924 0.3757,0 0.60674,-0.22745 0.60674,-0.6722 l 0,-1.38953 0.42413,0 0,1.36891 z" /><path
         inkscape:connector-curvature="0"
         id="path3566-8"
         style="clip-rule:evenodd;fill:#6b6e71;fill-opacity:1;fill-rule:nonzero;stroke:none;stroke-miterlimit:1.41420996"
         d="m 67.91753,161.8075 -0.42741,0 0,-2.02048 -0.76545,0 0,-0.39304 1.95831,0 0,0.39304 -0.76545,0 0,2.02048 z" /><path
         d="m 69.50983,161.80741 -0.42412,0 0,-2.41352 0.42412,0 0,2.41352 z"
         style="clip-rule:evenodd;fill:#6b6e71;fill-opacity:1;fill-rule:nonzero;stroke:none;stroke-miterlimit:1.41420996"
         id="path3568-7"
         inkscape:connector-curvature="0" /><path
         inkscape:connector-curvature="0"
         id="path3572-4"
         style="clip-rule:evenodd;fill:#6b6e71;fill-opacity:1;fill-rule:nonzero;stroke:none;stroke-miterlimit:1.41420996"
         d="m 71.23683,159.74215 c -0.47941,0 -0.81357,0.38258 -0.81357,0.85512 0,0.47225 0.34103,0.862 0.82045,0.862 0.47912,0 0.81387,-0.38258 0.81387,-0.85512 0,-0.47225 -0.34133,-0.862 -0.82075,-0.862 m 0,2.10687 c -0.74124,0 -1.25832,-0.56221 -1.25832,-1.24487 0,-0.68236 0.52395,-1.25175 1.2652,-1.25175 0.74124,0 1.25832,0.56221 1.25832,1.24487 0,0.68266 -0.52395,1.25175 -1.2652,1.25175" /><path
         inkscape:connector-curvature="0"
         id="path3576-1"
         style="clip-rule:evenodd;fill:#6b6e71;fill-opacity:1;fill-rule:nonzero;stroke:none;stroke-miterlimit:1.41420996"
         d="m 74.63202,159.39392 0.41725,0 0,2.41352 -0.35538,0 -1.33065,-1.71711 0,1.71711 -0.41725,0 0,-2.41352 0.39304,0 1.29299,1.66899 0,-1.66899 z" /><path
         inkscape:connector-curvature="0"
         id="path3580-6"
         style="clip-rule:evenodd;fill:#6b6e71;fill-opacity:1;fill-rule:nonzero;stroke:none;stroke-miterlimit:1.41420996"
         d="m 76.53101,160.40763 c 0.5102,0.12404 0.77591,0.30666 0.77591,0.71016 0,0.4552 -0.35538,0.7242 -0.86229,0.7242 -0.36883,0 -0.71704,-0.12762 -1.00666,-0.38616 l 0.25525,-0.30337 c 0.23104,0.19995 0.46208,0.31383 0.76187,0.31383 0.26212,0 0.42771,-0.12075 0.42771,-0.30696 0,-0.17574 -0.0965,-0.26541 -0.54488,-0.37241 -0.51378,-0.12075 -0.80341,-0.27558 -0.80341,-0.72391 0,-0.42084 0.34492,-0.70358 0.82404,-0.70358 0.35179,0 0.63095,0.107 0.87574,0.30367 l -0.22745,0.3204 c -0.2173,-0.16199 -0.43459,-0.24807 -0.65517,-0.24807 -0.24807,0 -0.39304,0.12762 -0.39304,0.28962 0,0.1895 0.1103,0.27229 0.57238,0.38258" /><path
         inkscape:connector-curvature="0"
         id="path3584-3"
         style="clip-rule:evenodd;fill:#6b6e71;fill-opacity:1;fill-rule:nonzero;stroke:none;stroke-miterlimit:1.41420996"
         d="m 36.48366,164.92015 c 0,-0.20683 -0.1623,-0.32788 -0.49646,-0.32788 l -0.6725,0 0,0.66204 0.70329,0 c 0.28992,0 0.46567,-0.11358 0.46567,-0.33416 m -0.1345,-1.01711 c 0,-0.19667 -0.15184,-0.31025 -0.42413,-0.31025 l -0.61033,0 0,0.64111 0.57925,0 c 0.27229,0 0.45521,-0.1067 0.45521,-0.33087 m 0.42412,-0.069 c 0,0.2965 -0.16559,0.44804 -0.34492,0.54129 0.28275,0.0965 0.47942,0.25854 0.47942,0.58941 0,0.43488 -0.35538,0.66562 -0.89308,0.66562 l -1.11724,0 0,-2.41352 1.08257,0 c 0.48629,0 0.79325,0.23792 0.79325,0.6172" /><path
         inkscape:connector-curvature="0"
         id="path3588-8"
         style="clip-rule:evenodd;fill:#6b6e71;fill-opacity:1;fill-rule:nonzero;stroke:none;stroke-miterlimit:1.41420996"
         d="m 38.35171,165.63031 -0.42771,0 0,-0.95166 -0.95854,-1.46186 0.50004,0 0.67579,1.06882 0.68266,-1.06882 0.48599,0 -0.95823,1.4514 0,0.96212 z" /><path
         inkscape:connector-curvature="0"
         id="path3592-5"
         style="clip-rule:evenodd;fill:#6b6e71;fill-opacity:1;fill-rule:nonzero;stroke:none;stroke-miterlimit:1.41420996"
         d="m 41.72675,163.56493 c -0.47942,0 -0.81387,0.38288 -0.81387,0.85512 0,0.47224 0.34133,0.86199 0.82074,0.86199 0.47912,0 0.81388,-0.38257 0.81388,-0.85511 0,-0.47225 -0.34133,-0.862 -0.82075,-0.862 m 0,2.10686 c -0.74124,0 -1.25832,-0.5622 -1.25832,-1.24486 0,-0.68237 0.52395,-1.25145 1.26519,-1.25145 0.74125,0 1.25832,0.56191 1.25832,1.24457 0,0.68296 -0.52395,1.25174 -1.26519,1.25174" /><path
         inkscape:connector-curvature="0"
         id="path3596-5"
         style="clip-rule:evenodd;fill:#6b6e71;fill-opacity:1;fill-rule:nonzero;stroke:none;stroke-miterlimit:1.41420996"
         d="m 44.35311,163.60289 -0.49317,0 0,0.86887 0.49317,0 c 0.32071,0 0.52066,-0.17575 0.52066,-0.43428 0,-0.28634 -0.20354,-0.43459 -0.52066,-0.43459 m -0.0137,1.25145 -0.47942,0 0,0.77591 -0.42412,0 0,-2.41352 0.95166,0 c 0.56221,0 0.91729,0.31742 0.91729,0.81028 0,0.54488 -0.43458,0.82732 -0.96541,0.82732" /><path
         inkscape:connector-curvature="0"
         id="path3600-0"
         style="clip-rule:evenodd;fill:#6b6e71;fill-opacity:1;fill-rule:nonzero;stroke:none;stroke-miterlimit:1.41420996"
         d="m 47.45888,163.59617 -1.36532,0 0,0.62736 1.2102,0 0,0.37929 -1.2102,0 0,0.64829 1.38266,0 0,0.37929 -1.80678,0 0,-2.41382 1.78944,0 0,0.37959 z" /><path
         inkscape:connector-curvature="0"
         id="path3604-1"
         style="clip-rule:evenodd;fill:#6b6e71;fill-opacity:1;fill-rule:nonzero;stroke:none;stroke-miterlimit:1.41420996"
         d="m 49.59591,163.21673 0.41724,0 0,2.41352 -0.35508,0 -1.33094,-1.71711 0,1.71711 -0.41725,0 0,-2.41352 0.39304,0 1.29299,1.66869 0,-1.66869 z" /><path
         inkscape:connector-curvature="0"
         id="path3608-2"
         style="clip-rule:evenodd;fill:#6b6e71;fill-opacity:1;fill-rule:nonzero;stroke:none;stroke-miterlimit:1.41420996"
         d="m 52.45985,164.23044 c 0.5102,0.12403 0.77591,0.30666 0.77591,0.71045 0,0.45491 -0.35537,0.72391 -0.86199,0.72391 -0.36883,0 -0.71733,-0.12763 -1.00695,-0.38616 l 0.25525,-0.30337 c 0.23104,0.19995 0.46208,0.31383 0.76186,0.31383 0.26213,0 0.42771,-0.12075 0.42771,-0.30696 0,-0.17575 -0.0965,-0.26541 -0.54487,-0.37212 -0.51379,-0.12105 -0.80341,-0.27617 -0.80341,-0.7242 0,-0.42084 0.34491,-0.70358 0.82403,-0.70358 0.35179,0 0.63095,0.107 0.87604,0.30367 l -0.22775,0.3204 c -0.21729,-0.16199 -0.43428,-0.24807 -0.65516,-0.24807 -0.24838,0 -0.39304,0.12762 -0.39304,0.28962 0,0.1895 0.11029,0.27229 0.57237,0.38258" /><path
         inkscape:connector-curvature="0"
         id="path3612-6"
         style="clip-rule:evenodd;fill:#6b6e71;fill-opacity:1;fill-rule:nonzero;stroke:none;stroke-miterlimit:1.41420996"
         d="m 54.81754,163.56493 c -0.47942,0 -0.81357,0.38288 -0.81357,0.85512 0,0.47224 0.34103,0.86199 0.82044,0.86199 0.47912,0 0.81388,-0.38257 0.81388,-0.85511 0,-0.47225 -0.34133,-0.862 -0.82075,-0.862 m 0,2.10686 c -0.74124,0 -1.25832,-0.5622 -1.25832,-1.24486 0,-0.68237 0.52395,-1.25145 1.26519,-1.25145 0.74125,0 1.25832,0.56191 1.25832,1.24457 0,0.68296 -0.52395,1.25174 -1.26519,1.25174" /><path
         inkscape:connector-curvature="0"
         id="path3616-4"
         style="clip-rule:evenodd;fill:#6b6e71;fill-opacity:1;fill-rule:nonzero;stroke:none;stroke-miterlimit:1.41420996"
         d="m 58.55409,164.58567 c 0,0.72061 -0.40679,1.08257 -1.03774,1.08257 -0.62767,0 -1.02758,-0.36196 -1.02758,-1.06195 l 0,-1.38953 0.42412,0 0,1.37249 c 0,0.44803 0.23104,0.68924 0.61033,0.68924 0.3757,0 0.60674,-0.22716 0.60674,-0.6722 l 0,-1.38953 0.42413,0 0,1.36891 z" /><path
         inkscape:connector-curvature="0"
         id="path3620-8"
         style="clip-rule:evenodd;fill:#6b6e71;fill-opacity:1;fill-rule:nonzero;stroke:none;stroke-miterlimit:1.41420996"
         d="m 60.10822,163.60289 -0.61721,0 0,0.81029 0.62079,0 c 0.30337,0 0.49646,-0.15841 0.49646,-0.40679 0,-0.26541 -0.18621,-0.4035 -0.50004,-0.4035 m 0.50691,2.02736 -0.59329,-0.84107 -0.53083,0 0,0.84107 -0.42412,0 0,-2.41352 1.0757,0 c 0.55533,0 0.89666,0.29321 0.89666,0.76575 0,0.39961 -0.23791,0.64111 -0.57595,0.73437 l 0.65187,0.9134 -0.50004,0 z" /><path
         inkscape:connector-curvature="0"
         id="path3624-5"
         style="clip-rule:evenodd;fill:#6b6e71;fill-opacity:1;fill-rule:nonzero;stroke:none;stroke-miterlimit:1.41420996"
         d="m 62.61053,165.67176 c -0.70328,0 -1.22753,-0.54816 -1.22753,-1.24486 0,-0.68954 0.51379,-1.25145 1.24487,-1.25145 0.44475,0 0.71375,0.15513 0.94479,0.3757 l -0.27259,0.31384 c -0.19308,-0.17934 -0.39991,-0.30009 -0.67579,-0.30009 -0.46208,0 -0.79653,0.37959 -0.79653,0.85542 0,0.47553 0.33445,0.86169 0.79653,0.86169 0.2965,0 0.48629,-0.12045 0.69313,-0.31383 l 0.27228,0.27587 c -0.25166,0.26213 -0.52754,0.42771 -0.97916,0.42771" /><path
         inkscape:connector-curvature="0"
         id="path3628-6"
         style="clip-rule:evenodd;fill:#6b6e71;fill-opacity:1;fill-rule:nonzero;stroke:none;stroke-miterlimit:1.41420996"
         d="m 65.75439,163.59617 -1.36532,0 0,0.62736 1.2102,0 0,0.37929 -1.2102,0 0,0.64829 1.38266,0 0,0.37929 -1.80678,0 0,-2.41382 1.78944,0 0,0.37959 z" /><path
         inkscape:connector-curvature="0"
         id="path3632-2"
         style="clip-rule:evenodd;fill:#6b6e71;fill-opacity:1;fill-rule:nonzero;stroke:none;stroke-miterlimit:1.41420996"
         d="m 68.95984,163.59617 -1.36532,0 0,0.62736 1.2102,0 0,0.37929 -1.2102,0 0,0.64829 1.38266,0 0,0.37929 -1.80678,0 0,-2.41382 1.78944,0 0,0.37959 z" /><path
         inkscape:connector-curvature="0"
         id="path3636-5"
         style="clip-rule:evenodd;fill:#6b6e71;fill-opacity:1;fill-rule:nonzero;stroke:none;stroke-miterlimit:1.41420996"
         d="m 70.98639,165.63031 -0.63454,-0.9137 -0.63782,0.9137 -0.48599,0 0.87903,-1.22724 -0.84466,-1.18628 0.50004,0 0.59987,0.86528 0.60345,-0.86528 0.48599,0 -0.84107,1.17911 0.87544,1.23441 -0.49974,0 z" /><path
         inkscape:connector-curvature="0"
         id="path3640-2"
         style="clip-rule:evenodd;fill:#6b6e71;fill-opacity:1;fill-rule:nonzero;stroke:none;stroke-miterlimit:1.41420996"
         d="m 72.77168,163.60289 -0.49316,0 0,0.86887 0.49316,0 c 0.32071,0 0.52067,-0.17575 0.52067,-0.43428 0,-0.28634 -0.20355,-0.43459 -0.52067,-0.43459 m -0.0138,1.25145 -0.47941,0 0,0.77591 -0.42412,0 0,-2.41352 0.95166,0 c 0.5622,0 0.91728,0.31742 0.91728,0.81028 0,0.54488 -0.43458,0.82732 -0.96541,0.82732" /><path
         inkscape:connector-curvature="0"
         id="path3644-6"
         style="clip-rule:evenodd;fill:#6b6e71;fill-opacity:1;fill-rule:nonzero;stroke:none;stroke-miterlimit:1.41420996"
         d="m 75.87749,163.59617 -1.36532,0 0,0.62736 1.2102,0 0,0.37929 -1.2102,0 0,0.64829 1.38265,0 0,0.37929 -1.80677,0 0,-2.41382 1.78944,0 0,0.37959 z" /><path
         inkscape:connector-curvature="0"
         id="path3648-9"
         style="clip-rule:evenodd;fill:#6b6e71;fill-opacity:1;fill-rule:nonzero;stroke:none;stroke-miterlimit:1.41420996"
         d="m 77.36972,163.60289 -0.61721,0 0,0.81029 0.62079,0 c 0.30337,0 0.49646,-0.15841 0.49646,-0.40679 0,-0.26541 -0.18621,-0.4035 -0.50004,-0.4035 m 0.50691,2.02736 -0.59299,-0.84107 -0.53113,0 0,0.84107 -0.42412,0 0,-2.41352 1.0757,0 c 0.55533,0 0.89666,0.29321 0.89666,0.76575 0,0.39961 -0.23791,0.64111 -0.57595,0.73437 l 0.65157,0.9134 -0.49974,0 z" /><path
         inkscape:connector-curvature="0"
         id="path3652-1"
         style="clip-rule:evenodd;fill:#6b6e71;fill-opacity:1;fill-rule:nonzero;stroke:none;stroke-miterlimit:1.41420996"
         d="m 79.76127,165.63031 -0.42741,0 0,-2.02048 -0.76545,0 0,-0.39304 1.95831,0 0,0.39304 -0.76545,0 0,2.02048 z" /><path
         inkscape:connector-curvature="0"
         id="path3656-3"
         style="clip-rule:evenodd;fill:#6b6e71;fill-opacity:1;fill-rule:nonzero;stroke:none;stroke-miterlimit:1.41420996"
         d="m 81.78459,164.23044 c 0.5102,0.12403 0.77592,0.30666 0.77592,0.71045 0,0.45491 -0.35538,0.72391 -0.8623,0.72391 -0.36882,0 -0.71703,-0.12763 -1.00665,-0.38616 l 0.25525,-0.30337 c 0.23104,0.19995 0.46208,0.31383 0.76186,0.31383 0.26213,0 0.42771,-0.12075 0.42771,-0.30696 0,-0.17575 -0.0965,-0.26541 -0.54487,-0.37212 -0.51379,-0.12105 -0.80341,-0.27617 -0.80341,-0.7242 0,-0.42084 0.34492,-0.70358 0.82403,-0.70358 0.35179,0 0.63096,0.107 0.87575,0.30367 l -0.22746,0.3204 c -0.21729,-0.16199 -0.43458,-0.24807 -0.65516,-0.24807 -0.24808,0 -0.39304,0.12762 -0.39304,0.28962 0,0.1895 0.11029,0.27229 0.57237,0.38258" /></g></g><path
     inkscape:connector-curvature="0"
     id="path20488"
     style="fill:#f47216;fill-opacity:1;fill-rule:nonzero;stroke:none"
     d="m 37.652044,31.895074 0.872203,0 0,-0.871853 -0.872203,0 0,0.871853 z m -5.233218,1.744407 0.872883,0 0,-0.872535 -0.872883,0 0,0.872535 z m -0.871523,0.872203 0.871523,0 0,-0.871854 -0.871523,0 0,0.871854 z m -3.488463,2.615928 0.872865,0 0,-0.871853 -0.872865,0 0,0.871853 z m -0.871872,0.872553 -0.872203,0 0,0.871854 0.872203,0 0,-0.871854 z m 0.871872,-0.872553 -0.871541,0 0,0.872553 0.871541,0 0,-0.872553 z m 2.61694,-0.872203 -0.872203,0 0,0.871872 0.872203,0 0,-0.871872 z m 0.871523,-1.743725 -0.871523,0 0,1.744075 0.871523,0 0,-1.744075 z m 0.871523,0.871872 0.872883,0 0,-0.871872 -0.872883,0 0,0.871872 z m 3.488812,-0.871872 -0.871523,0 0,0.871872 0.871523,0 0,-0.871872 z m 0.872203,-1.744738 -0.872203,0 0,1.744738 0.872203,0 0,-1.744738 z m 0.872203,-0.871872 -0.872203,0 0,0.871523 0.872203,0 0,-0.871523 z m 6.105091,6.976945 -0.872203,0 0,-0.871854 0,-0.872553 -0.871872,0 0,-0.872203 0,-0.871853 -0.872884,0 0,-1.744075 -0.871854,0 0,-0.872535 -0.872203,0 0,-0.871872 -0.871522,0 0,1.744407 0,0.24276 0,0.629443 -0.872553,0 0,0.871872 0.872553,0 0,0.385688 0,0.486165 -0.872553,0 0,-0.871853 -0.872203,0 0,0.871853 -0.872203,0 0,0.872203 0.872203,0 0,0.872553 -0.872203,0 0,0.871854 -0.871854,0 0,-0.871854 0.871854,0 0,-0.872553 -0.871854,0 0,-1.744056 -1.743725,0 0,0.871853 -0.873233,0 0,0.872203 -0.871523,0 0,1.744407 0.871523,0 0,0.872203 -0.871523,0 0,-0.872203 -0.871523,0 0,-0.871854 -0.872534,0 0,-0.872553 -0.871541,0 0,1.744407 -1.744737,0 0,0.872203 -0.872203,0 0,-0.872203 -0.871872,0 0,0.872203 0,0.699406 0,4.53315 6.975933,0 0.466485,0 10.871824,0 0,-6.104759 z" /><path
     d="m 129.54798,217.55493 -0.8722,0 0,0.87185 0.8722,0 0,-0.87185 z m 5.23322,-1.74441 -0.87288,0 0,0.87253 0.87288,0 0,-0.87253 z m 0.87152,-0.8722 -0.87152,0 0,0.87185 0.87152,0 0,-0.87185 z m 3.48847,-2.61593 -0.87287,0 0,0.87185 0.87287,0 0,-0.87185 z m 0.87187,-0.87256 0.8722,0 0,-0.87185 -0.8722,0 0,0.87185 z m -0.87187,0.87256 0.87154,0 0,-0.87256 -0.87154,0 0,0.87256 z m -2.61694,0.8722 0.8722,0 0,-0.87187 -0.8722,0 0,0.87187 z m -0.87153,1.74373 0.87153,0 0,-1.74408 -0.87153,0 0,1.74408 z m -0.87152,-0.87188 -0.87288,0 0,0.87188 0.87288,0 0,-0.87188 z m -3.48881,0.87188 0.87152,0 0,-0.87188 -0.87152,0 0,0.87188 z m -0.87221,1.74473 0.87221,0 0,-1.74473 -0.87221,0 0,1.74473 z m -0.8722,0.87188 0.8722,0 0,-0.87153 -0.8722,0 0,0.87153 z m -6.10509,-6.97695 0.8722,0 0,0.87185 0,0.87256 0.87188,0 0,0.8722 0,0.87185 0.87288,0 0,1.74408 0.87185,0 0,0.87253 0.87221,0 0,0.87188 0.87152,0 0,-1.74441 0,-0.24276 0,-0.62944 0.87255,0 0,-0.87188 -0.87255,0 0,-0.38568 0,-0.48617 0.87255,0 0,0.87185 0.8722,0 0,-0.87185 0.87221,0 0,-0.8722 -0.87221,0 0,-0.87256 0.87221,0 0,-0.87185 0.87185,0 0,0.87185 -0.87185,0 0,0.87256 0.87185,0 0,1.74405 1.74373,0 0,-0.87185 0.87323,0 0,-0.8722 0.87152,0 0,-1.74441 -0.87152,0 0,-0.8722 0.87152,0 0,0.8722 0.87153,0 0,0.87185 0.87253,0 0,0.87256 0.87154,0 0,-1.74441 1.74474,0 0,-0.8722 0.8722,0 0,0.8722 0.87187,0 0,-0.8722 0,-0.69941 0,-4.53315 -6.97593,0 -0.46649,0 -10.87182,0 0,6.10476 z"
     style="fill:#f47216;fill-opacity:1;fill-rule:nonzero;stroke:none"
     id="path20490"
     inkscape:connector-curvature="0" /></svg>