<?xml version="1.0" encoding="UTF-8" standalone="no"?>
<!-- Generator: Adobe Illustrator 18.1.1, SVG Export Plug-In . SVG Version: 6.00 Build 0)  -->

<svg
   xmlns:dc="http://purl.org/dc/elements/1.1/"
   xmlns:cc="http://creativecommons.org/ns#"
   xmlns:rdf="http://www.w3.org/1999/02/22-rdf-syntax-ns#"
   xmlns:svg="http://www.w3.org/2000/svg"
   xmlns="http://www.w3.org/2000/svg"
   xmlns:sodipodi="http://sodipodi.sourceforge.net/DTD/sodipodi-0.dtd"
   xmlns:inkscape="http://www.inkscape.org/namespaces/inkscape"
   version="1.1"
   id="Layer_1"
   x="0px"
   y="0px"
   viewBox="0 0 167.2 249.4"
   enable-background="new 0 0 167.2 249.4"
   xml:space="preserve"
   inkscape:version="0.91 r13725"
   sodipodi:docname="planning poker_Piece of cake.svg"
   inkscape:export-filename="/home/raphink/dev/Scrum-poker-cards/png/planning poker_Piece of cake.png"
   inkscape:export-xdpi="374.94"
   inkscape:export-ydpi="374.94"><metadata
     id="metadata15574"><rdf:RDF><cc:Work
         rdf:about=""><dc:format>image/svg+xml</dc:format><dc:type
           rdf:resource="http://purl.org/dc/dcmitype/StillImage" /></cc:Work></rdf:RDF></metadata><defs
     id="defs15572" /><sodipodi:namedview
     pagecolor="#ffffff"
     bordercolor="#666666"
     borderopacity="1"
     objecttolerance="10"
     gridtolerance="10"
     guidetolerance="10"
     inkscape:pageopacity="0"
     inkscape:pageshadow="2"
     inkscape:window-width="1920"
     inkscape:window-height="1043"
     id="namedview15570"
     showgrid="false"
     inkscape:zoom="1.8925422"
     inkscape:cx="80.619992"
     inkscape:cy="115.76313"
     inkscape:window-x="1366"
     inkscape:window-y="0"
     inkscape:window-maximized="1"
     inkscape:current-layer="Layer_1" /><rect
     x="-5.7"
     y="-5.7"
     fill="#F8ABAA"
     width="178.6"
     height="260.8"
     id="rect15344"
     style="fill:#ffd5d5" /><g
     id="g15348"
     style=""><text
       transform="translate(15.3198,29.7173)"
       font-size="20"
       id="text15350"
       style="font-size:20px;font-family:RobotoSlab-Regular"
       x="5.1799998"
       y="0"><tspan
         style="font-style:normal;font-variant:normal;font-weight:normal;font-stretch:normal;font-family:Gotham;-inkscape-font-specification:Gotham;text-anchor:middle;text-align:center"
         id="tspan16122">2</tspan></text>
</g><g
     id="g15354"><text
       transform="matrix(-1,0,0,-1,151.9238,219.7319)"
       font-size="20"
       id="text15356"
       x="5.1799998"
       y="0"
       style="font-size:20px;font-family:RobotoSlab-Regular"><tspan
         style="font-style:normal;font-variant:normal;font-weight:normal;font-stretch:normal;font-family:Gotham;-inkscape-font-specification:Gotham;text-anchor:middle;text-align:center"
         id="tspan16124">2</tspan></text>
</g><polygon
     style="fill:#f0649b"
     id="polygon15360"
     points="25.5,135 77.7,80.3 143.4,102.2 143.4,169.2 25.5,202 " /><polygon
     style="fill:#fdefdb"
     id="polygon15362"
     points="25.5,135 143.4,102.2 143.4,169.2 25.5,202 " /><polygon
     style="fill:#f5d0c0"
     id="polygon15364"
     points="25.5,196.8 143.4,164 143.4,169.2 25.5,202 " /><path
     style="fill:#e5ccad"
     inkscape:connector-curvature="0"
     id="path15366"
     d="m 134.5,154.9 c -5.6,1.6 -5.1,3.3 -10.7,4.9 -5.6,1.6 -6.1,-0.2 -11.7,1.3 -5.6,1.6 -5.1,3.3 -10.7,4.9 -5.6,1.6 -6.1,-0.2 -11.7,1.3 -5.6,1.6 -5.1,3.3 -10.7,4.9 -5.6,1.6 -6.1,-0.2 -11.7,1.3 -5.6,1.6 -5.1,3.3 -10.7,4.9 -5.6,1.6 -6.1,-0.2 -11.7,1.3 -5.6,1.6 -5.1,3.3 -10.7,4.9 -4.5,1.3 -5.7,0.4 -8.9,0.8 l 0,16.6 117.9,-32.8 0,-15.1 c -3,0.5 -4.2,-0.5 -8.7,0.8 z" /><path
     style="opacity:0.5;fill:#e5ccad"
     inkscape:connector-curvature="0"
     id="path15368"
     d="m 137.5,127.7 c -6.8,1.9 -4.7,9.1 -11.5,11 -6.8,1.9 -8.8,-5.3 -15.5,-3.5 -6.8,1.9 -4.7,9.1 -11.5,11 -6.8,1.9 -8.8,-5.3 -15.5,-3.5 -6.8,1.9 -4.7,9.1 -11.5,11 -6.8,1.9 -8.8,-5.3 -15.5,-3.5 -6.8,1.9 -4.7,9.1 -11.5,11 -6.8,1.9 -8.8,-5.3 -15.5,-3.4 -1.8,0.5 -3,1.5 -3.9,2.6 l 0,14.1 c 3.2,-0.4 4.4,0.5 8.9,-0.7 5.6,-1.6 5.1,-3.3 10.7,-4.9 5.6,-1.6 6.1,0.2 11.7,-1.3 5.6,-1.6 5.1,-3.3 10.7,-4.9 5.6,-1.6 6.1,0.2 11.7,-1.3 5.6,-1.6 5.1,-3.3 10.7,-4.9 5.6,-1.6 6.1,0.2 11.7,-1.3 5.6,-1.6 5.1,-3.3 10.7,-4.9 5.6,-1.6 6.1,0.2 11.7,-1.3 5.6,-1.6 5.1,-3.3 10.7,-4.9 4.5,-1.3 5.7,-0.4 8.9,-0.8 l 0,-14.7 c -2,-1 -3.8,-1.6 -6.2,-0.9 z" /><path
     style="fill:#7f6cb1"
     inkscape:connector-curvature="0"
     id="path15374"
     d="m 84.6,109.3 0,0 c -0.6,0.1 -1.2,-0.3 -1.3,-1 l -0.4,-2.9 c -0.1,-0.6 0.3,-1.2 1,-1.3 l 0,0 c 0.6,-0.1 1.2,0.3 1.3,1 l 0.4,2.9 c 0.1,0.6 -0.3,1.2 -1,1.3 z" /><path
     style="fill:#f0a88f"
     inkscape:connector-curvature="0"
     id="path15376"
     d="m 72.2,93.7 0,0 c 0,-0.6 0.5,-1.2 1.1,-1.2 l 3,-0.1 c 0.6,0 1.2,0.5 1.2,1.1 l 0,0 c 0,0.6 -0.5,1.2 -1.1,1.2 l -3,0.1 c -0.6,0 -1.1,-0.5 -1.2,-1.1 z" /><path
     style="fill:#f0a88f"
     inkscape:connector-curvature="0"
     id="path15378"
     d="m 118.3,100.3 0,0 c -0.3,-0.6 0,-1.3 0.6,-1.5 l 2.7,-1.2 c 0.6,-0.3 1.3,0 1.5,0.6 l 0,0 c 0.3,0.6 0,1.3 -0.6,1.5 l -2.7,1.2 c -0.5,0.2 -1.2,0 -1.5,-0.6 z" /><path
     style="fill:#d5dff2"
     inkscape:connector-curvature="0"
     id="path15380"
     d="m 71.3,116.9 0,0 c 0,-0.6 0.6,-1.2 1.2,-1.1 l 3,0.1 c 0.6,0 1.2,0.6 1.1,1.2 l 0,0 c 0,0.6 -0.6,1.2 -1.2,1.1 l -3,-0.1 c -0.6,0 -1.1,-0.5 -1.1,-1.2 z" /><path
     style="fill:#ebb5bb"
     inkscape:connector-curvature="0"
     id="path15382"
     d="m 41.4,125.1 0,0 c -0.2,-0.6 0.2,-1.3 0.9,-1.4 l 2.9,-0.7 c 0.6,-0.2 1.3,0.2 1.4,0.9 l 0,0 c 0.2,0.6 -0.2,1.3 -0.9,1.4 l -2.9,0.7 c -0.6,0.1 -1.2,-0.3 -1.4,-0.9 z" /><path
     style="fill:#7f6cb1"
     inkscape:connector-curvature="0"
     id="path15384"
     d="m 57.8,122.4 0,0 c -0.4,-0.5 -0.3,-1.2 0.2,-1.6 l 2.3,-1.8 c 0.5,-0.4 1.2,-0.3 1.6,0.2 l 0,0 c 0.4,0.5 0.3,1.2 -0.2,1.6 l -2.3,1.8 c -0.4,0.4 -1.2,0.3 -1.6,-0.2 z" /><path
     style="fill:#db3b7f"
     inkscape:connector-curvature="0"
     id="path15386"
     d="m 51.3,114 0,0 c -0.4,-0.5 -0.3,-1.2 0.2,-1.6 l 2.3,-1.8 c 0.5,-0.4 1.2,-0.3 1.6,0.2 l 0,0 c 0.4,0.5 0.3,1.2 -0.2,1.6 l -2.3,1.8 c -0.5,0.3 -1.2,0.3 -1.6,-0.2 z" /><path
     style="fill:#ebb5bb"
     inkscape:connector-curvature="0"
     id="path15388"
     d="m 67.9,104 0,0 c -0.3,0.6 -0.9,0.9 -1.5,0.6 l -2.7,-1.2 c -0.6,-0.3 -0.9,-0.9 -0.6,-1.5 l 0,0 c 0.3,-0.6 0.9,-0.9 1.5,-0.6 l 2.7,1.2 c 0.6,0.2 0.9,0.9 0.6,1.5 z" /><path
     style="fill:#f4f0d4"
     inkscape:connector-curvature="0"
     id="path15390"
     d="m 85,96.1 0,0 c -0.6,0.2 -1.3,-0.2 -1.4,-0.8 l -0.8,-2.8 c -0.2,-0.6 0.2,-1.3 0.8,-1.4 l 0,0 c 0.6,-0.2 1.3,0.2 1.4,0.8 l 0.8,2.8 c 0.1,0.6 -0.2,1.3 -0.8,1.4 z" /><path
     style="fill:#7f6cb1"
     inkscape:connector-curvature="0"
     id="path15392"
     d="m 100.4,103.5 0,0 c -0.1,-0.6 0.3,-1.3 0.9,-1.4 l 2.9,-0.6 c 0.6,-0.1 1.3,0.3 1.4,0.9 l 0,0 c 0.1,0.6 -0.3,1.3 -0.9,1.4 l -2.9,0.6 c -0.7,0.1 -1.3,-0.3 -1.4,-0.9 z" /><path
     style="fill:#91c6e6"
     inkscape:connector-curvature="0"
     id="path15394"
     d="m 91,93.5 0,0 c 0,-0.6 0.6,-1.2 1.2,-1.1 l 3,0.1 c 0.6,0 1.2,0.6 1.1,1.2 l 0,0 c 0,0.6 -0.6,1.2 -1.2,1.1 l -3,-0.1 c -0.7,0 -1.2,-0.6 -1.1,-1.2 z" /><text
     xml:space="preserve"
     style="font-style:normal;font-weight:normal;font-size:12.5px;line-height:125%;font-family:sans-serif;text-align:center;letter-spacing:0px;word-spacing:0px;text-anchor:middle;fill:#000000;fill-opacity:1;stroke:none;stroke-width:1px;stroke-linecap:butt;stroke-linejoin:miter;stroke-opacity:1"
     x="85.025932"
     y="188.59999"
     id="text22788"
     sodipodi:linespacing="125%"><tspan
       sodipodi:role="line"
       id="tspan22790"
       x="85.025932"
       y="188.59999"
       style="font-style:normal;font-variant:normal;font-weight:300;font-stretch:normal;font-size:180px;font-family:Gotham;-inkscape-font-specification:'Gotham Light'">2</tspan></text>
<g
     id="g15396"><path
       style="fill:#d1394a"
       inkscape:connector-curvature="0"
       id="path15398"
       d="m 110.7,103.2 c 7.6,-7.5 7.6,-19.8 0,-27.4 -7.5,-7.6 -19.8,-7.6 -27.4,0 -9.3,9.3 -10.3,29 -6,33.3 4.3,4.2 24.8,2.6 33.4,-5.9 z" /><ellipse
       style="fill:#dedac6"
       id="ellipse15400"
       ry="1.6"
       rx="0.40000001"
       cy="86.599998"
       cx="99.400002"
       transform="matrix(0.7061,0.7082,-0.7082,0.7061,90.5783,-44.9617)" /><ellipse
       style="fill:#dedac6"
       id="ellipse15402"
       ry="1.6"
       rx="0.40000001"
       cy="103"
       cx="99.400002"
       transform="matrix(0.3735,0.9276,-0.9276,0.3735,157.8687,-27.6783)" /><ellipse
       style="fill:#dedac6"
       id="ellipse15404"
       ry="1.6"
       rx="0.40000001"
       cy="94.800003"
       cx="107.6"
       transform="matrix(0.8285,0.56,-0.56,0.8285,71.5817,-44.0142)" /><ellipse
       style="fill:#dedac6"
       id="ellipse15406"
       ry="1.6"
       rx="0.40000001"
       cy="88.199997"
       cx="83"
       transform="matrix(0.8491,0.5283,-0.5283,0.8491,59.155,-30.5511)" /><ellipse
       style="fill:#dedac6"
       id="ellipse15408"
       ry="1.6"
       rx="0.40000001"
       cy="82.5"
       cx="82.199997"
       transform="matrix(0.8491,0.5283,-0.5283,0.8491,55.9983,-30.9891)" /><ellipse
       style="fill:#dedac6"
       id="ellipse15410"
       ry="1.6"
       rx="0.40000001"
       cy="100.6"
       cx="90.400002"
       transform="matrix(-0.317,-0.9484,0.9484,-0.317,23.6894,218.1797)" /><ellipse
       style="fill:#dedac6"
       id="ellipse15412"
       ry="1.6"
       rx="0.40000001"
       cy="94.800003"
       cx="99.400002"
       transform="matrix(-0.5698,-0.8218,0.8218,-0.5698,78.1672,230.5823)" /><ellipse
       style="fill:#dedac6"
       id="ellipse15414"
       ry="1.6"
       rx="0.40000001"
       cy="107.1"
       cx="93.699997"
       transform="matrix(-0.5698,-0.8218,0.8218,-0.5698,59.0207,245.1505)" /><ellipse
       style="fill:#dedac6"
       id="ellipse15416"
       ry="1.6"
       rx="0.40000001"
       cy="92.400002"
       cx="92.099998"
       transform="matrix(-0.7061,-0.7082,0.7082,-0.7061,91.6526,222.7624)" /><ellipse
       style="fill:#dedac6"
       id="ellipse15418"
       ry="1.6"
       rx="0.40000001"
       cy="103.8"
       cx="80.599998"
       transform="matrix(-0.8609,-0.5088,0.5088,-0.8609,97.0788,234.1971)" /><ellipse
       style="fill:#dedac6"
       id="ellipse15420"
       ry="1.6"
       rx="0.40000001"
       cy="107.1"
       cx="85.5"
       transform="matrix(-0.2255,-0.9742,0.9742,-0.2255,0.3917,214.541)" /><ellipse
       style="fill:#dedac6"
       id="ellipse15422"
       ry="1.6"
       rx="0.40000001"
       cy="85.800003"
       cx="106.8"
       transform="matrix(-0.9099,-0.4149,0.4149,-0.9099,168.4345,208.2264)" /><ellipse
       style="fill:#dedac6"
       id="ellipse15424"
       ry="1.6"
       rx="0.40000001"
       cy="79.199997"
       cx="97"
       transform="matrix(-0.44,-0.898,0.898,-0.44,68.5157,201.2137)" /><ellipse
       style="fill:#dedac6"
       id="ellipse15426"
       ry="1.6"
       rx="0.40000001"
       cy="75.099998"
       cx="94.5"
       transform="matrix(-0.44,-0.898,0.898,-0.44,68.6673,193.0982)" /><ellipse
       style="fill:#dedac6"
       id="ellipse15428"
       ry="1.6"
       rx="0.40000001"
       cy="77.5"
       cx="87.099998"
       transform="matrix(-0.8563,-0.5164,0.5164,-0.8563,121.5994,188.8094)" /><ellipse
       style="fill:#dedac6"
       id="ellipse15430"
       ry="1.6"
       rx="0.40000001"
       cy="84.199997"
       cx="90.400002"
       transform="matrix(-0.6209,-0.7839,0.7839,-0.6209,80.6094,207.2931)" /><ellipse
       style="fill:#dedac6"
       id="ellipse15432"
       ry="1.6"
       rx="0.40000001"
       cy="94"
       cx="83.900002"
       transform="matrix(-0.842,-0.5395,0.5395,-0.842,103.7479,218.3638)" /><ellipse
       style="fill:#dedac6"
       id="ellipse15434"
       ry="1.6"
       rx="0.40000001"
       cy="96.400002"
       cx="78.099998"
       transform="matrix(-0.9619,-0.2735,0.2735,-0.9619,126.8586,210.5671)" /><ellipse
       style="fill:#dedac6"
       id="ellipse15436"
       ry="1.6"
       rx="0.40000001"
       cy="100.6"
       cx="106.8"
       transform="matrix(-0.7061,-0.7082,0.7082,-0.7061,110.9975,247.2412)" /><path
       style="fill:#94a979"
       inkscape:connector-curvature="0"
       id="path15438"
       d="m 117.7,76.7 c -1.2,-0.1 -2.4,-0.1 -3.5,0 1.1,-0.7 2.2,-1.5 3.2,-2.5 3,-2.9 4.8,-6.7 5.3,-10.5 -3.9,0.4 -7.7,2.1 -10.7,5 -0.8,0.8 -1.6,1.7 -2.2,2.6 0.1,-1 0.2,-1.9 0.1,-2.9 -0.2,-4.2 -1.8,-8 -4.3,-11 -2.3,3.2 -3.6,7.1 -3.4,11.3 0.2,4 1.7,7.7 4,10.6 0,0 0.3,0.4 0.3,0.3 2.8,2.5 6.3,4.2 10.3,4.7 4.2,0.4 8.2,-0.6 11.5,-2.7 -2.7,-2.6 -6.4,-4.5 -10.6,-4.9 z" /></g><g
     id="g15440"><circle
       style="fill:#f0649b"
       id="circle15442"
       r="5.4000001"
       cy="108.5"
       cx="75.900002" /><circle
       style="fill:#f0649b"
       id="circle15444"
       r="5.4000001"
       cy="110.4"
       cx="84.900002" /><circle
       style="fill:#f0649b"
       id="circle15446"
       r="5.4000001"
       cy="110.4"
       cx="94.400002" /><circle
       style="fill:#f0649b"
       id="circle15448"
       r="5.4000001"
       cy="108.5"
       cx="103" /></g><path
     style="fill:#f0649b"
     inkscape:connector-curvature="0"
     id="path15450"
     d="m 31.4,146.6 c 6.8,-1.9 4.7,-9.1 11.5,-11 6.8,-1.9 8.8,5.3 15.5,3.5 6.8,-1.9 4.7,-9.1 11.5,-11 6.8,-1.9 8.8,5.3 15.5,3.5 6.8,-1.9 4.7,-9.1 11.5,-11 6.8,-1.9 8.8,5.3 15.5,3.5 6.8,-1.9 4.7,-9.1 11.5,-11 6.8,-1.9 8.8,5.3 15.5,3.4 1.8,-0.5 3,-1.5 3.9,-2.6 l 0,-11.7 -117.8,32.8 0,10.8 c 1.7,0.9 3.5,1.4 5.9,0.8 z" /><g
     id="g15452"><circle
       style="fill:#f0649b"
       id="circle15454"
       r="2.5"
       cy="135.5"
       cx="30.700001" /><circle
       style="fill:#f0649b"
       id="circle15456"
       r="1.8"
       cy="133.7"
       cx="33.200001" /><circle
       style="fill:#f0649b"
       id="circle15458"
       r="1.8"
       cy="133.60001"
       cx="36" /><circle
       style="fill:#f0649b"
       id="circle15460"
       r="2.4000001"
       cy="132.2"
       cx="39.099998" /><circle
       style="fill:#f0649b"
       id="circle15462"
       r="2.4000001"
       cy="131"
       cx="42.700001" /><circle
       style="fill:#f0649b"
       id="circle15464"
       r="2.4000001"
       cy="130.5"
       cx="46.299999" /><circle
       style="fill:#f0649b"
       id="circle15466"
       r="3.2"
       cy="128.5"
       cx="50.5" /><circle
       style="fill:#f0649b"
       id="circle15468"
       r="3.2"
       cy="125.8"
       cx="54.700001" /><circle
       style="fill:#f0649b"
       id="circle15470"
       r="3.2"
       cy="126.3"
       cx="59.599998" /><circle
       style="fill:#f0649b"
       id="circle15472"
       r="2.5999999"
       cy="123.8"
       cx="64.099998" /><circle
       style="fill:#f0649b"
       id="circle15474"
       r="2.5999999"
       cy="123.3"
       cx="68.300003" /><circle
       style="fill:#f0649b"
       id="circle15476"
       r="2.5999999"
       cy="122.4"
       cx="71.699997" /><circle
       style="fill:#f0649b"
       id="circle15478"
       r="2.0999999"
       cy="121"
       cx="75.5" /><circle
       style="fill:#f0649b"
       id="circle15480"
       r="2.0999999"
       cy="120.4"
       cx="79.099998" /><circle
       style="fill:#f0649b"
       id="circle15482"
       r="2.0999999"
       cy="119.3"
       cx="82.400002" /><circle
       style="fill:#f0649b"
       id="circle15484"
       r="2.8"
       cy="119.1"
       cx="86.400002" /><circle
       style="fill:#f0649b"
       id="circle15486"
       r="2.8"
       cy="117.2"
       cx="93" /><circle
       style="fill:#f0649b"
       id="circle15488"
       r="2.8"
       cy="115.8"
       cx="96.699997" /><circle
       style="fill:#f0649b"
       id="circle15490"
       r="2.8"
       cy="114.7"
       cx="100.8" /><circle
       style="fill:#f0649b"
       id="circle15492"
       r="2.8"
       cy="113.3"
       cx="104.7" /><circle
       style="fill:#f0649b"
       id="circle15494"
       r="2.8"
       cy="112.4"
       cx="108.6" /><circle
       style="fill:#f0649b"
       id="circle15496"
       r="3.7"
       cy="110.5"
       cx="111.4" /><circle
       style="fill:#f0649b"
       id="circle15498"
       r="2.8"
       cy="110.7"
       cx="116.4" /><ellipse
       style="fill:#f0649b"
       id="ellipse15500"
       ry="2.0999999"
       rx="2"
       cy="108.8"
       cx="120.1" /><ellipse
       style="fill:#f0649b"
       id="ellipse15502"
       ry="2.3"
       rx="2.0999999"
       cy="108.3"
       cx="122.9" /><ellipse
       style="fill:#f0649b"
       id="ellipse15504"
       ry="2.3"
       rx="2.0999999"
       cy="107.4"
       cx="126" /><ellipse
       style="fill:#f0649b"
       id="ellipse15506"
       ry="2.3"
       rx="2.0999999"
       cy="106.5"
       cx="129.3" /><ellipse
       style="fill:#f0649b"
       id="ellipse15508"
       ry="2.3"
       rx="2.0999999"
       cy="106"
       cx="132.39999" /><ellipse
       style="fill:#f0649b"
       id="ellipse15510"
       ry="2.3"
       rx="2.0999999"
       cy="104.8"
       cx="136.2" /><ellipse
       style="fill:#f0649b"
       id="ellipse15512"
       ry="2.9000001"
       rx="2.7"
       cy="104.9"
       cx="139.89999" /><circle
       style="fill:#f0649b"
       id="circle15514"
       r="1.7"
       cy="117.6"
       cx="89.400002" /></g><path
     style="fill:#7f6cb1"
     inkscape:connector-curvature="0"
     id="path15516"
     d="m 70.5,111.1 0,0 c -0.6,-0.2 -1,-0.8 -0.8,-1.4 l 0.7,-2.9 c 0.2,-0.6 0.8,-1 1.4,-0.8 l 0,0 c 0.6,0.2 1,0.8 0.8,1.4 l -0.7,2.9 c -0.2,0.6 -0.8,1 -1.4,0.8 z" /><path
     style="fill:#7f6cb1"
     inkscape:connector-curvature="0"
     id="path15518"
     d="m 98.1,113 0,0 c -0.4,-0.5 -0.3,-1.2 0.2,-1.6 l 2.3,-1.8 c 0.5,-0.4 1.2,-0.3 1.6,0.2 l 0,0 c 0.4,0.5 0.3,1.2 -0.2,1.6 l -2.3,1.8 c -0.5,0.4 -1.2,0.3 -1.6,-0.2 z" /><path
     style="fill:#d5dff2"
     inkscape:connector-curvature="0"
     id="path15520"
     d="m 81.9,109.2 0,0 c 0.3,-0.6 1,-0.8 1.6,-0.5 l 2.6,1.4 c 0.6,0.3 0.8,1 0.5,1.6 l 0,0 c -0.3,0.6 -1,0.8 -1.6,0.5 l -2.6,-1.4 c -0.6,-0.3 -0.8,-1 -0.5,-1.6 z" /><path
     style="fill:#e5ccad"
     inkscape:connector-curvature="0"
     id="path15522"
     d="m 34.4,183.1 c 5.6,-1.6 5.1,-3.3 10.7,-4.9 5.6,-1.6 6.1,0.2 11.7,-1.3 5.6,-1.6 5.1,-3.3 10.7,-4.9 5.6,-1.6 6.1,0.2 11.7,-1.3 5.6,-1.6 5.1,-3.3 10.7,-4.9 5.6,-1.6 6.1,0.2 11.7,-1.3 5.6,-1.6 5.1,-3.3 10.7,-4.9 5.6,-1.6 6.1,0.2 11.7,-1.3 5.6,-1.6 5.1,-3.3 10.7,-4.9 4.5,-1.3 5.7,-0.4 8.9,-0.8 l 0,-7.8 c -3.2,0.4 -4.4,-0.5 -8.9,0.7 -5.6,1.6 -5.1,3.3 -10.7,4.9 -5.6,1.6 -6.1,-0.2 -11.7,1.3 -5.6,1.6 -5.1,3.3 -10.7,4.9 -5.6,1.6 -6.1,-0.2 -11.7,1.3 -5.6,1.6 -5.1,3.3 -10.7,4.9 -5.6,1.6 -6.1,-0.2 -11.7,1.3 -5.6,1.6 -5.1,3.3 -10.7,4.9 -5.6,1.6 -6.1,-0.2 -11.7,1.3 -5.6,1.6 -5.1,3.3 -10.7,4.9 -4.5,1.3 -5.7,0.4 -8.9,0.8 l 0,7.8 c 3.2,-0.4 4.4,0.6 8.9,-0.7 z" /><path
     style="fill:#e5ccad"
     inkscape:connector-curvature="0"
     id="path15524"
     d="m 123.8,161.6 c -5.6,1.6 -6.1,-0.2 -11.7,1.3 -5.6,1.6 1.2,14.6 1.2,14.6 l 12.2,-3.4 c 0,0.1 3.9,-14 -1.7,-12.5 z" /><ellipse
     style="fill:#e5ccad"
     id="ellipse15526"
     ry="4.4000001"
     rx="3.7"
     cy="191"
     cx="41.5" /><path
     style="fill:#d5dff2"
     inkscape:connector-curvature="0"
     id="path15528"
     d="m 128.5,103.1 0,0 c 0.2,-0.6 0.8,-1 1.5,-0.8 l 2.8,0.8 c 0.6,0.2 1,0.8 0.8,1.5 l 0,0 c -0.2,0.6 -0.8,1 -1.5,0.8 l -2.8,-0.8 c -0.6,-0.2 -1,-0.8 -0.8,-1.5 z" /><circle
     style="fill:#573b2e"
     id="circle15530"
     r="0.60000002"
     cy="180"
     cx="36" /><circle
     style="fill:#573b2e"
     id="circle15532"
     r="0.60000002"
     cy="173.39999"
     cx="45.400002" /><circle
     style="fill:#573b2e"
     id="circle15534"
     r="0.60000002"
     cy="168.8"
     cx="76.300003" /><circle
     style="fill:#573b2e"
     id="circle15536"
     r="0.60000002"
     cy="163.10001"
     cx="82.900002" /><circle
     style="fill:#573b2e"
     id="circle15538"
     r="0.60000002"
     cy="162.2"
     cx="101.6" /><circle
     style="fill:#573b2e"
     id="circle15540"
     r="0.60000002"
     cy="163.10001"
     cx="92.199997" /><circle
     style="fill:#573b2e"
     id="circle15542"
     r="0.60000002"
     cy="153.8"
     cx="120.3" /><circle
     style="fill:#573b2e"
     id="circle15544"
     r="0.60000002"
     cy="154.7"
     cx="112.8" /><circle
     style="fill:#573b2e"
     id="circle15546"
     r="0.60000002"
     cy="158.5"
     cx="107.2" /><circle
     style="fill:#573b2e"
     id="circle15548"
     r="0.60000002"
     cy="160.3"
     cx="97.800003" /><circle
     style="fill:#573b2e"
     id="circle15550"
     r="0.60000002"
     cy="166.7"
     cx="80" /><circle
     style="fill:#573b2e"
     id="circle15552"
     r="0.60000002"
     cy="169.60001"
     cx="69.800003" /><circle
     style="fill:#573b2e"
     id="circle15554"
     r="0.60000002"
     cy="169.8"
     cx="60.400002" /><circle
     style="fill:#573b2e"
     id="circle15556"
     r="0.60000002"
     cy="174.5"
     cx="55.799999" /><circle
     style="fill:#573b2e"
     id="circle15558"
     r="0.60000002"
     cy="156.60001"
     cx="116.6" /><circle
     style="fill:#573b2e"
     id="circle15560"
     r="0.60000002"
     cy="148.2"
     cx="139" /><circle
     style="fill:#573b2e"
     id="circle15562"
     r="0.60000002"
     cy="151.89999"
     cx="128.7" /><circle
     style="fill:#573b2e"
     id="circle15564"
     r="0.60000002"
     cy="166"
     cx="70.699997" /><circle
     style="fill:#573b2e"
     id="circle15566"
     r="0.60000002"
     cy="172.5"
     cx="51.900002" /><circle
     style="fill:#573b2e"
     id="circle15568"
     r="0.60000002"
     cy="178.10001"
     cx="32.299999" /><path
     d="m 21.813836,36.431253 0.39505,0 0,-0.395572 -0.39505,0 0,0.395572 z m -2.37292,0.790627 0.39557,0 0,-0.395572 -0.39557,0 0,0.395572 z m -0.39609,0.396089 0.39609,0 0,-0.396089 -0.39609,0 0,0.396089 z m -1.58177,1.186717 0.39557,0 0,-0.395572 -0.39557,0 0,0.395572 z m -0.39609,0.395572 -0.39557,0 0,0.395056 0.39557,0 0,-0.395056 z m 0.39609,-0.395572 -0.39609,0 0,0.395572 0.39609,0 0,-0.395572 z m 1.18568,-0.39609 -0.39557,0 0,0.395573 0.39557,0 0,-0.395573 z m 0.39609,-0.790627 -0.39609,0 0,0.790627 0.39609,0 0,-0.790627 z m 0.39609,0.395572 0.39557,0 0,-0.395572 -0.39557,0 0,0.395572 z m 1.58177,-0.395572 -0.39557,0 0,0.395572 0.39557,0 0,-0.395572 z m 0.39558,-0.791661 -0.39558,0 0,0.791661 0.39558,0 0,-0.791661 z m 0.39557,-0.395055 -0.39609,0 0,0.395572 0.39609,0 0,-0.395572 z m 2.769,3.164061 -0.39609,0 0,-0.395056 0,-0.395572 -0.39505,0 0,-0.39609 0,-0.395055 -0.39557,0 0,-0.791661 -0.39558,0 0,-0.395572 -0.39557,0 0,-0.395055 -0.39609,0 0,0.790627 0,0.110141 0,0.285949 -0.39505,0 0,0.395572 0.39505,0 0,0.174776 0,0.220279 -0.39505,0 0,-0.395055 -0.39557,0 0,0.395055 -0.39558,0 0,0.39609 0.39558,0 0,0.395572 -0.39558,0 0,0.395056 -0.39505,0 0,-0.395056 0.39505,0 0,-0.395572 -0.39505,0 0,-0.791145 -0.79166,0 0,0.395055 -0.39506,0 0,0.39609 -0.39609,0 0,0.790628 0.39609,0 0,0.396088 -0.39609,0 0,-0.396088 -0.39609,0 0,-0.395056 -0.39505,0 0,-0.395572 -0.39558,0 0,0.790628 -0.79114,0 0,0.396088 -0.39557,0 0,-0.396088 -0.39557,0 0,0.396088 0,0.317492 0,2.055425 3.16509,0 0.21097,0 4.93095,0 0,-2.769005 z"
     style="fill:#f47216;fill-opacity:1;fill-rule:nonzero;stroke:none"
     id="path3510-3"
     inkscape:connector-curvature="0" /><path
     inkscape:connector-curvature="0"
     id="path16130"
     style="fill:#f47216;fill-opacity:1;fill-rule:nonzero;stroke:none"
     d="m 145.42976,213.06875 -0.39505,0 0,0.39557 0.39505,0 0,-0.39557 z m 2.37292,-0.79063 -0.39557,0 0,0.39558 0.39557,0 0,-0.39558 z m 0.39609,-0.39609 -0.39609,0 0,0.39609 0.39609,0 0,-0.39609 z m 1.58177,-1.18671 -0.39557,0 0,0.39557 0.39557,0 0,-0.39557 z m 0.39609,-0.39557 0.39557,0 0,-0.39506 -0.39557,0 0,0.39506 z m -0.39609,0.39557 0.39609,0 0,-0.39557 -0.39609,0 0,0.39557 z m -1.18568,0.39609 0.39557,0 0,-0.39558 -0.39557,0 0,0.39558 z m -0.39609,0.79062 0.39609,0 0,-0.79062 -0.39609,0 0,0.79062 z m -0.39609,-0.39557 -0.39557,0 0,0.39557 0.39557,0 0,-0.39557 z m -1.58177,0.39557 0.39557,0 0,-0.39557 -0.39557,0 0,0.39557 z m -0.39558,0.79167 0.39558,0 0,-0.79167 -0.39558,0 0,0.79167 z m -0.39557,0.39505 0.39609,0 0,-0.39557 -0.39609,0 0,0.39557 z m -2.769,-3.16406 0.39609,0 0,0.39506 0,0.39557 0.39505,0 0,0.39609 0,0.39505 0.39557,0 0,0.79166 0.39558,0 0,0.39558 0.39557,0 0,0.39505 0.39609,0 0,-0.79063 0,-0.11014 0,-0.28595 0.39505,0 0,-0.39557 -0.39505,0 0,-0.17477 0,-0.22028 0.39505,0 0,0.39505 0.39557,0 0,-0.39505 0.39558,0 0,-0.39609 -0.39558,0 0,-0.39558 0.39558,0 0,-0.39505 0.39505,0 0,0.39505 -0.39505,0 0,0.39558 0.39505,0 0,0.79114 0.79166,0 0,-0.39505 0.39506,0 0,-0.39609 0.39609,0 0,-0.79063 -0.39609,0 0,-0.39609 0.39609,0 0,0.39609 0.39609,0 0,0.39505 0.39505,0 0,0.39558 0.39558,0 0,-0.79063 0.79114,0 0,-0.39609 0.39557,0 0,0.39609 0.39557,0 0,-0.39609 0,-0.31749 0,-2.05543 -3.16509,0 -0.21097,0 -4.93095,0 0,2.76901 z" /></svg>