<?xml version="1.0" encoding="UTF-8" standalone="no"?>
<!-- Generator: Adobe Illustrator 18.1.1, SVG Export Plug-In . SVG Version: 6.00 Build 0)  -->

<svg
   xmlns:dc="http://purl.org/dc/elements/1.1/"
   xmlns:cc="http://creativecommons.org/ns#"
   xmlns:rdf="http://www.w3.org/1999/02/22-rdf-syntax-ns#"
   xmlns:svg="http://www.w3.org/2000/svg"
   xmlns="http://www.w3.org/2000/svg"
   xmlns:sodipodi="http://sodipodi.sourceforge.net/DTD/sodipodi-0.dtd"
   xmlns:inkscape="http://www.inkscape.org/namespaces/inkscape"
   version="1.1"
   id="Layer_1"
   x="0px"
   y="0px"
   viewBox="0 0 167.2 249.4"
   enable-background="new 0 0 167.2 249.4"
   xml:space="preserve"
   inkscape:version="0.91 r13725"
   sodipodi:docname="planning poker_Here be dragons.svg"
   inkscape:export-filename="/home/raphink/dev/Scrum-poker-cards/png/planning poker_Here be dragons.png"
   inkscape:export-xdpi="374.93985"
   inkscape:export-ydpi="374.93985"><metadata
     id="metadata6878"><rdf:RDF><cc:Work
         rdf:about=""><dc:format>image/svg+xml</dc:format><dc:type
           rdf:resource="http://purl.org/dc/dcmitype/StillImage" /></cc:Work></rdf:RDF></metadata><defs
     id="defs6876" /><sodipodi:namedview
     pagecolor="#ffffff"
     bordercolor="#666666"
     borderopacity="1"
     objecttolerance="10"
     gridtolerance="10"
     guidetolerance="10"
     inkscape:pageopacity="0"
     inkscape:pageshadow="2"
     inkscape:window-width="1920"
     inkscape:window-height="1043"
     id="namedview6874"
     showgrid="false"
     inkscape:zoom="2.6764588"
     inkscape:cx="-41.795442"
     inkscape:cy="144.49035"
     inkscape:window-x="1366"
     inkscape:window-y="0"
     inkscape:window-maximized="1"
     inkscape:current-layer="Layer_1" /><rect
     x="-5.7"
     y="-5.7"
     fill="#F9A02E"
     width="178.6"
     height="260.8"
     id="rect6764"
     style="fill:#ffe680;fill-opacity:1" /><polygon
     fill="#CD6F28"
     points="-5.4,124.3 9.8,111.9 15.1,123.2 27.8,94.5 47.3,122.5 61.5,110.8 69.7,122.2 82.4,97 96.2,117.2   103,104.1 117.8,124.6 132,83.5 137.3,108.7 144.4,104.1 155.4,134.9 173.2,112.2 173.2,255.3 -5.4,255.3 "
     id="polygon6766"
     style="fill:#ffb380;fill-opacity:1" /><text
     transform="translate(11.8434,29.7172)"
     font-size="20"
     id="text6770"
     x="10.149219"
     y="0"
     style="font-size:20px;font-family:RobotoSlab-Regular;fill:#220e0a"><tspan
       style="font-style:normal;font-variant:normal;font-weight:normal;font-stretch:normal;font-family:Gotham;-inkscape-font-specification:Gotham;text-anchor:middle;text-align:center"
       id="tspan7033">¿?</tspan></text>
<text
     transform="matrix(-1,0,0,-1,155.4042,219.7293)"
     font-size="20"
     id="text6774"
     x="10.149219"
     y="0"
     style="font-size:20px;font-family:RobotoSlab-Regular;fill:#220e0a"><tspan
       style="font-style:normal;font-variant:normal;font-weight:normal;font-stretch:normal;font-family:Gotham;-inkscape-font-specification:Gotham;text-anchor:middle;text-align:center"
       id="tspan7035">¿?</tspan></text>
<g
     id="g6776"><g
       id="g6778"><polygon
         fill="#220E0A"
         points="93.3,106.2 96.1,107.9 92.9,107.4   "
         id="polygon6780" /><polygon
         fill="#220E0A"
         points="86.8,118.6 89.5,120.4 86.3,119.9   "
         id="polygon6782" /><path
         fill="#220E0A"
         d="M65.2,98.6l1.7,33.9l8.1,2.3c0,0,1.8-7.3,3.7-11.1c2-4,7.3-3.6,8.1-3.7l0.5-1c-2.3-3.4-1.3-8.1,2.1-10.3    c1.1-0.8,2.4-1.2,3.7-1.2l0.5-1.1c-0.4-0.4-0.8-0.9-1.2-1.5c-2.9-4.4-1.7-10.3,2.7-13.2c1.1-0.7,3.3-1.6,5-2.2l-0.1-0.3L65.2,98.6    z"
         id="path6784" /><path
         fill="#220E0A"
         d="M100,89.1l0.1,0.3c1.4-0.5,2.5-0.9,2.5-0.9L100,89.1z"
         id="path6786" /></g><g
       id="g6788"><polygon
         fill="#220E0A"
         points="51.3,108.2 47.3,108 50.1,109.6   "
         id="polygon6790" /><polygon
         fill="#220E0A"
         points="54.1,106.1 50.1,105.9 52.9,107.5   "
         id="polygon6792" /><polygon
         fill="#220E0A"
         points="56.6,104.5 52.6,104.3 55.4,105.9   "
         id="polygon6794" /></g><polygon
       fill="#220E0A"
       points="75.3,176.4 75.5,192.8 77.3,192.8 84.5,178.9  "
       id="polygon6796" /><path
       fill="#220E0A"
       d="M77.2,192.9c0,0-0.4-1.2-0.9-1.5c-1.9-1.1-4.3-0.6-5.4,1.3c-0.1,0.2-0.2,0.4-0.3,0.6c0.8-0.5,1.7-0.9,2.7-1   c-0.6,0.3-1.2,0.8-1.5,1.4c-0.1,0.2-0.2,0.4-0.3,0.6c0.9-0.6,2-0.9,3.1-1.1c-0.7,0.3-1.3,0.8-1.7,1.5c-0.1,0.2-0.2,0.4-0.3,0.6   C74.6,194,77.2,192.9,77.2,192.9z"
       id="path6798" /><polygon
       fill="#220E0A"
       points="35.9,159.8 36.4,189.2 39.5,189.2 52.6,164.3  "
       id="polygon6800" /><path
       fill="#220E0A"
       d="M39.4,189.4c0,0-0.7-2.2-1.6-2.8c-3.3-2.1-7.7-1-9.8,2.3c-0.2,0.3-0.4,0.7-0.5,1c1.5-0.9,3.1-1.5,4.8-1.9   c-1.1,0.6-2.1,1.4-2.8,2.6c-0.2,0.3-0.4,0.7-0.5,1c1.7-1,3.6-1.7,5.5-2c-1.2,0.6-2.3,1.5-3.1,2.7c-0.2,0.3-0.4,0.7-0.5,1   C34.7,191.3,39.4,189.4,39.4,189.4z"
       id="path6802" /><g
       id="g6804"><polygon
         fill="#220E0A"
         points="119.4,219.4 119.1,223.4 117.9,220.4   "
         id="polygon6806" /><polygon
         fill="#220E0A"
         points="121.9,217 121.6,220.9 120.4,217.9   "
         id="polygon6808" /><polygon
         fill="#220E0A"
         points="123.9,214.7 123.5,218.7 122.4,215.7   "
         id="polygon6810" /></g><path
       fill="#220E0A"
       d="M86.3,39.2c-1.2,3.6-2.5,6.6-4.8,9.7c-5.1,6.5-12.4,12.2-15.1,20.6c1.3,0.7,3,1.6,4.2,2.3   c2.6-9,7.9-14.4,12.2-22.5C84.3,46.4,85.8,42.2,86.3,39.2L86.3,39.2z"
       id="path6812" /><path
       fill="#912221"
       d="M73.7,142.1c0-20.4,8.4-39.6,10.8-47.8c2-6.9,3.7-19.8-0.3-24.9C80.1,64.3,53.8,79,56.6,79   c0,0,10.6,0.7,10.6,8.5s-7.5,13.5-11.9,17.4c-4,3.5-26.7,18.9-26.7,36.6c0,52.9,89.8,44.1,89.8,67.4c0,13.3-20.1,18.1-20.1,18.1   s28.3-1.5,28.3-20.7C126.4,177,73.7,165.1,73.7,142.1z"
       id="path6814" /><path
       fill="#912221"
       d="M84.5,69.3c-3.5-5.5-11.4-6.8-17.7-2.9c-3.7,2.3-18.1,14.7-16.6,22.1l10.9-3.9c1.5-0.5,3.2,0.2,3.7,1.7   c0.5,1.5-0.2,3.2-1.7,3.7l-7.6,2.7c7.6,1.2,20.9-4.4,24-6.3C85.7,82.5,88,74.8,84.5,69.3z"
       id="path6816" /><g
       id="g6818"><polygon
         fill="#FFFFFF"
         points="51.1,88.2 51.1,88.2 52.4,87.7   "
         id="polygon6820" /><polygon
         fill="#FFFFFF"
         points="53.4,87.4 52.4,87.7 51.1,88.2 52.1,91.2   "
         id="polygon6822" /><polygon
         fill="#FFFFFF"
         points="54,90.5 55.2,86.7 52.9,87.6   "
         id="polygon6824" /><polygon
         fill="#FFFFFF"
         points="55.8,89.9 57,86.1 54.7,86.9   "
         id="polygon6826" /><polygon
         fill="#FFFFFF"
         points="57.6,89.2 58.8,85.4 56.5,86.3   "
         id="polygon6828" /><polygon
         fill="#FFFFFF"
         points="59.4,88.6 60.6,84.8 58.3,85.6   "
         id="polygon6830" /></g><ellipse
       transform="matrix(0.7907 0.6122 -0.6122 0.7907 61.8308 -15.7857)"
       fill="#220E0A"
       cx="54"
       cy="82.5"
       rx="0.7"
       ry="1.6"
       id="ellipse6832" /><ellipse
       transform="matrix(0.7907 0.6122 -0.6122 0.7907 62.1268 -18.0147)"
       fill="#220E0A"
       cx="57.4"
       cy="81.9"
       rx="0.7"
       ry="1.6"
       id="ellipse6834" /><path
       fill="#220E0A"
       d="M98,41.5c-1.2,3.6-2.5,6.6-4.8,9.7c-5.1,6.5-12.4,12.2-15.1,20.6c0.4,0.6,1.2,1.3,1.9,1.7   c0.8,0.4,1.6,0.5,2.4,0.6c2.6-9,7.9-14.4,12.2-22.5C96,48.7,97.5,44.5,98,41.5L98,41.5z"
       id="path6836" /><path
       fill="#FFFFFF"
       d="M66.7,76.4c1.5,0.3,3.2,0,4.6-1c1.4-1,2.3-2.4,2.6-3.9c-1.5-0.3-3.2,0-4.6,1C67.9,73.4,67,74.8,66.7,76.4z"
       id="path6838" /><path
       fill="#E37D4C"
       d="M69.6,74.3c0.4,0.5,1,0.9,1.6,0.9c0.2-0.6,0.1-1.2-0.3-1.8c-0.4-0.5-1-0.9-1.6-0.9   C69.2,73.1,69.3,73.8,69.6,74.3z"
       id="path6840" /><path
       fill="#220E0A"
       d="M70,73.3c1.6-1,3.5-1.3,5.2-1.1c-1.7-1.4-4.1-1.6-6.1-0.4s-2.9,3.5-2.4,5.6C67.2,75.8,68.4,74.3,70,73.3z"
       id="path6842" /><polygon
       fill="#220E0A"
       points="73.2,66.1 77.5,60.7 76.3,66.1  "
       id="polygon6844" /><polygon
       fill="#220E0A"
       points="77.6,66 80.1,62.9 79.4,66  "
       id="polygon6846" /><circle
       fill="#220E0A"
       cx="54.7"
       cy="167.6"
       r="8.9"
       id="circle6848" /><polygon
       fill="#220E0A"
       points="45.8,167.6 46.3,197.1 49.4,197.1 62.5,172.1  "
       id="polygon6850" /><path
       fill="#220E0A"
       d="M49.3,197.2c0,0-0.7-2.2-1.6-2.8c-3.3-2.1-7.7-1-9.8,2.3c-0.2,0.3-0.4,0.7-0.5,1c1.5-0.9,3.1-1.5,4.8-1.9   c-1.1,0.6-2.1,1.4-2.8,2.6c-0.2,0.3-0.4,0.7-0.5,1c1.7-1,3.6-1.7,5.5-2c-1.2,0.6-2.3,1.5-3.1,2.7c-0.2,0.3-0.4,0.7-0.5,1   C44.6,199.1,49.3,197.2,49.3,197.2z"
       id="path6852" /><circle
       fill="#220E0A"
       cx="89.1"
       cy="182.9"
       r="5"
       id="circle6854" /><polygon
       fill="#220E0A"
       points="84.1,182.9 84.4,199.3 86.1,199.3 93.4,185.4  "
       id="polygon6856" /><path
       fill="#220E0A"
       d="M86.1,199.4c0,0-0.4-1.2-0.9-1.5c-1.9-1.1-4.3-0.6-5.4,1.3c-0.1,0.2-0.2,0.4-0.3,0.6c0.8-0.5,1.7-0.9,2.7-1   c-0.6,0.3-1.2,0.8-1.5,1.4c-0.1,0.2-0.2,0.4-0.3,0.6c0.9-0.6,2-0.9,3.1-1.1c-0.7,0.3-1.3,0.8-1.7,1.5c-0.1,0.2-0.2,0.4-0.3,0.6   C83.4,200.5,86.1,199.4,86.1,199.4z"
       id="path6858" /><g
       id="g6860"><polygon
         fill="#220E0A"
         points="123.2,157.5 121.8,162.8 121,157.4   "
         id="polygon6862" /><polygon
         fill="#220E0A"
         points="99.8,153.5 98.3,158.7 97.4,153.3   "
         id="polygon6864" /><path
         fill="#912221"
         d="M117.2,97.3l-50.1,31.2l0.4,14.2c0,0,12.7-0.9,19.7,0.2c7.4,1.1,9.6,9.9,10.2,11.1l1.9,0.3    c4.4-5.4,12.3-6.3,17.7-2c1.8,1.4,3.1,3.3,3.9,5.3l2,0.3c0.5-0.9,1.1-1.8,1.8-2.7c5.6-7,15.7-8.1,22.7-2.5    c1.8,1.4,4.3,4.4,6.2,6.8l0.4-0.3L117.2,97.3z"
         id="path6866" /><path
         fill="#220E0A"
         d="M154.1,159.3l-0.4,0.3c1.6,2,2.7,3.6,2.7,3.6L154.1,159.3z"
         id="path6868" /></g></g><path
     opacity="0.3"
     fill="#220E0A"
     d="M145.2,40.8l-6.9-10.7l-9.1,6c0,0,0,0,0,0l5.5-7.9l-8.7-5.9l-0.5-0.4c0,0,0.2,0.2,0.5,0.4  c0.3,0.3,0.7,0.7,0.9,1c0.7,1.1,0.5,2.5-0.6,3.3c-0.1,0.1-0.3,0.2-0.4,0.2v0l-0.7,0.1l0.7,0.2c0.3,0.1,0.5,0.3,0.7,0.6  c0.6,0.8,0.4,2-0.4,2.6l-0.6,0.1l0.7,0.2c0.2,0.1,1.4,0.5,1.5,1.6c0.1,0.6,0,1.6-0.1,2.3c-1.9-2.3-4-4.8-5.2-6.9l-1.4-2.8l-0.5,0.7  l-1-3.8l0.6,4.5l-0.3,0.4l-1-3.7l0.5,4.4l-2.5,3.7l5.3-2.8c0.3,2.7,1.4,5.3,2.7,7.5l-0.4,2.1l0.6,0.6l-0.2-0.8l0.4-1.1  c0.1,0.2,0.3,0.4,0.4,0.6l-0.5,2.3l0.6,0.5l-0.2-0.7l0.6-1.4c0.6,0.9,1.2,1.6,1.7,2.3l-1.5,1.6l1,2.2l-1.3,1.1l2.1-0.8l-0.5-2.4  l1.1-0.7c0.3,0.4,0.6,0.6,0.8,0.9l-1.2,1.6l1.6,2.7l-1.5,1.5l2.5-1.2l-0.9-2.9l0.6-0.5c3.9,3.6,7.6,8,10.3,13.2c0,0-2-9.5-8.6-16.5  c0,0-0.5-0.6-1.4-1.4c0.7,0,1.5-0.1,2.1,0c1.3,0.1,1.8,1.7,1.9,1.9l0.2,0.8l0.2-0.8c0.7-1,2.1-1.2,3.1-0.5c0.3,0.2,0.6,0.6,0.7,0.9  l0.2,0.9l0.2-0.8v0c0.1-0.2,0.2-0.3,0.3-0.5c0.9-1.3,2.7-1.5,4-0.6C144.3,39.9,144.8,40.4,145.2,40.8c0.2,0.4,0.4,0.7,0.4,0.7  L145.2,40.8z"
     id="path6870" /><path
     opacity="0.3"
     fill="#220E0A"
     d="M40.2,65.1l-1.1-2.7l0.9-2.7l-1.1,2.2l-0.1-0.3l1-2.7l-1.2,2.2l-0.2-0.5l-1.3,1.5  c-1,1.1-2.7,2.5-4.2,3.6c0-0.4,0.1-1,0.3-1.4c0.2-0.7,1-0.7,1.2-0.8l0.4,0l-0.4-0.2c-0.4-0.5-0.4-1.2,0.1-1.7  c0.2-0.1,0.3-0.2,0.5-0.3l0.5,0l-0.4-0.2l0,0c-0.1-0.1-0.2-0.1-0.2-0.2c-0.6-0.6-0.5-1.6,0.1-2.1c0.2-0.1,0.5-0.3,0.7-0.5  c0.2-0.1,0.4-0.2,0.4-0.2l-0.4,0.2L29.4,61l2.4,5.7c0,0,0,0,0,0l-4.9-5l-5.8,5.7l-0.4,0.4c0,0,0.2-0.1,0.4-0.3  c0.3-0.2,0.6-0.5,0.9-0.6c0.9-0.4,2,0,2.4,0.9c0.1,0.1,0.1,0.2,0.1,0.3l0,0.5l0.2-0.5c0.1-0.2,0.3-0.4,0.6-0.5  c0.7-0.3,1.6,0,1.9,0.7l0,0.5l0.2-0.5c0.1-0.1,0.6-1,1.4-0.9c0.4,0,0.9,0.2,1.3,0.3c-0.6,0.4-1.1,0.7-1.1,0.7  c-5.1,3.5-7.6,9.2-7.6,9.2c2.4-2.9,5.3-5.1,8.3-6.9l0.3,0.4l-1,1.7l1.4,1.1l-0.7-1.1l1.3-1.5l-0.5-1.1c0.2-0.1,0.4-0.2,0.6-0.4  l0.6,0.6l-0.6,1.4l1.2,0.8l-0.7-0.8l0.9-1.3L32,69.3c0.4-0.3,0.9-0.7,1.4-1.2l0.2,1l-0.2,0.4l0.4-0.2l0-1.5c0.1-0.1,0.2-0.2,0.3-0.3  l0.1,0.8L34,68.6l0.5-0.3l0-1.3c1.1-1.2,2.2-2.7,2.7-4.3L40.2,65.1z"
     id="path6872" /><path
     d="m 23.367903,36.431253 0.395055,0 0,-0.395572 -0.395055,0 0,0.395572 z m -2.372916,0.790627 0.395571,0 0,-0.395572 -0.395571,0 0,0.395572 z m -0.39609,0.396089 0.39609,0 0,-0.396089 -0.39609,0 0,0.396089 z m -1.581772,1.186717 0.395573,0 0,-0.395572 -0.395573,0 0,0.395572 z m -0.396088,0.395572 -0.395573,0 0,0.395056 0.395573,0 0,-0.395056 z m 0.396088,-0.395572 -0.396088,0 0,0.395572 0.396088,0 0,-0.395572 z m 1.185683,-0.39609 -0.395573,0 0,0.395573 0.395573,0 0,-0.395573 z m 0.396089,-0.790627 -0.396089,0 0,0.790627 0.396089,0 0,-0.790627 z m 0.39609,0.395572 0.395571,0 0,-0.395572 -0.395571,0 0,0.395572 z m 1.581771,-0.395572 -0.395572,0 0,0.395572 0.395572,0 0,-0.395572 z m 0.395573,-0.791661 -0.395573,0 0,0.791661 0.395573,0 0,-0.791661 z m 0.395572,-0.395055 -0.39609,0 0,0.395572 0.39609,0 0,-0.395572 z m 2.769005,3.164061 -0.396089,0 0,-0.395056 0,-0.395572 -0.395055,0 0,-0.39609 0,-0.395055 -0.395573,0 0,-0.791661 -0.395572,0 0,-0.395572 -0.395571,0 0,-0.395055 -0.39609,0 0,0.790627 0,0.110141 0,0.285949 -0.395055,0 0,0.395572 0.395055,0 0,0.174776 0,0.220279 -0.395055,0 0,-0.395055 -0.395572,0 0,0.395055 -0.395573,0 0,0.39609 0.395573,0 0,0.395572 -0.395573,0 0,0.395056 -0.395055,0 0,-0.395056 0.395055,0 0,-0.395572 -0.395055,0 0,-0.791145 -0.791661,0 0,0.395055 -0.395055,0 0,0.39609 -0.39609,0 0,0.790628 0.39609,0 0,0.396088 -0.39609,0 0,-0.396088 -0.396089,0 0,-0.395056 -0.395055,0 0,-0.395572 -0.395573,0 0,0.790628 -0.791143,0 0,0.396088 -0.395573,0 0,-0.396088 -0.395572,0 0,0.396088 0,0.317492 0,2.055425 3.165095,0 0.210971,0 4.93095,0 0,-2.769005 z"
     style="fill:#f47216;fill-opacity:1;fill-rule:nonzero;stroke:none"
     id="path3510-3"
     inkscape:connector-curvature="0" /><path
     inkscape:connector-curvature="0"
     id="path7426"
     style="fill:#f47216;fill-opacity:1;fill-rule:nonzero;stroke:none"
     d="m 143.8797,213.06875 -0.39505,0 0,0.39557 0.39505,0 0,-0.39557 z m 2.37292,-0.79062 -0.39557,0 0,0.39557 0.39557,0 0,-0.39557 z m 0.39609,-0.39609 -0.39609,0 0,0.39609 0.39609,0 0,-0.39609 z m 1.58177,-1.18672 -0.39557,0 0,0.39557 0.39557,0 0,-0.39557 z m 0.39609,-0.39557 0.39557,0 0,-0.39506 -0.39557,0 0,0.39506 z m -0.39609,0.39557 0.39609,0 0,-0.39557 -0.39609,0 0,0.39557 z m -1.18568,0.39609 0.39557,0 0,-0.39557 -0.39557,0 0,0.39557 z m -0.39609,0.79063 0.39609,0 0,-0.79063 -0.39609,0 0,0.79063 z m -0.39609,-0.39558 -0.39557,0 0,0.39558 0.39557,0 0,-0.39558 z m -1.58177,0.39558 0.39557,0 0,-0.39558 -0.39557,0 0,0.39558 z m -0.39558,0.79166 0.39558,0 0,-0.79166 -0.39558,0 0,0.79166 z m -0.39557,0.39505 0.39609,0 0,-0.39557 -0.39609,0 0,0.39557 z m -2.769,-3.16406 0.39609,0 0,0.39506 0,0.39557 0.39505,0 0,0.39609 0,0.39505 0.39557,0 0,0.79167 0.39558,0 0,0.39557 0.39557,0 0,0.39505 0.39609,0 0,-0.79062 0,-0.11015 0,-0.28594 0.39505,0 0,-0.39558 -0.39505,0 0,-0.17477 0,-0.22028 0.39505,0 0,0.39505 0.39557,0 0,-0.39505 0.39558,0 0,-0.39609 -0.39558,0 0,-0.39557 0.39558,0 0,-0.39506 0.39505,0 0,0.39506 -0.39505,0 0,0.39557 0.39505,0 0,0.79114 0.79166,0 0,-0.39505 0.39506,0 0,-0.39609 0.39609,0 0,-0.79063 -0.39609,0 0,-0.39609 0.39609,0 0,0.39609 0.39609,0 0,0.39506 0.39505,0 0,0.39557 0.39557,0 0,-0.79063 0.79115,0 0,-0.39609 0.39557,0 0,0.39609 0.39557,0 0,-0.39609 0,-0.31749 0,-2.05542 -3.16509,0 -0.21097,0 -4.93095,0 0,2.769 z" /></svg>