<?xml version="1.0" encoding="UTF-8" standalone="no"?>
<!-- Generator: Adobe Illustrator 18.1.1, SVG Export Plug-In . SVG Version: 6.00 Build 0)  -->

<svg
   xmlns:dc="http://purl.org/dc/elements/1.1/"
   xmlns:cc="http://creativecommons.org/ns#"
   xmlns:rdf="http://www.w3.org/1999/02/22-rdf-syntax-ns#"
   xmlns:svg="http://www.w3.org/2000/svg"
   xmlns="http://www.w3.org/2000/svg"
   xmlns:sodipodi="http://sodipodi.sourceforge.net/DTD/sodipodi-0.dtd"
   xmlns:inkscape="http://www.inkscape.org/namespaces/inkscape"
   version="1.1"
   id="Layer_1"
   x="0px"
   y="0px"
   viewBox="0 0 167.2 249.4"
   enable-background="new 0 0 167.2 249.4"
   xml:space="preserve"
   inkscape:version="0.91 r13725"
   sodipodi:docname="planning poker_Monster task.svg"
   inkscape:export-filename="/home/raphink/dev/Scrum-poker-cards/png/planning poker_Monster task.png"
   inkscape:export-xdpi="374.94"
   inkscape:export-ydpi="374.94"><metadata
     id="metadata10245"><rdf:RDF><cc:Work
         rdf:about=""><dc:format>image/svg+xml</dc:format><dc:type
           rdf:resource="http://purl.org/dc/dcmitype/StillImage" /></cc:Work></rdf:RDF></metadata><defs
     id="defs10243" /><sodipodi:namedview
     pagecolor="#ffffff"
     bordercolor="#666666"
     borderopacity="1"
     objecttolerance="10"
     gridtolerance="10"
     guidetolerance="10"
     inkscape:pageopacity="0"
     inkscape:pageshadow="2"
     inkscape:window-width="1920"
     inkscape:window-height="1043"
     id="namedview10241"
     showgrid="false"
     inkscape:zoom="2.6764588"
     inkscape:cx="-52.852445"
     inkscape:cy="147.46899"
     inkscape:window-x="1366"
     inkscape:window-y="0"
     inkscape:window-maximized="1"
     inkscape:current-layer="Layer_1" /><rect
     x="-5.7"
     y="-5.7"
     fill="#D4E7B1"
     width="178.6"
     height="260.8"
     id="rect10147" /><g
     id="g10149"><g
       opacity="0.2"
       id="g10151"><path
         fill="#5E806F"
         d="M57.5,230.7c0,0.2-0.4,0.4-0.9,0.4H31.5c-0.5,0-0.9-0.2-0.9-0.4s0.4-0.4,0.9-0.4h25.2    C57.1,230.3,57.5,230.5,57.5,230.7z"
         id="path10153" /></g><path
       fill="#BA3033"
       d="M32,210.1L32,210.1c-3.5-1.3-4.4,4.9-4.5,5.3s-0.1,0.6-0.1,0.6l0.6-0.2l-0.1,0.6l0.6-0.2l-0.1,0.6l0.6-0.2   l-0.1,0.6l0.5-0.2l-0.1,0.5l0.6-0.2l-0.1,0.6l0.6-0.2l0.3,0.6c0,0,0.6-3.8,0.8-4.4c0.8-2.1,1.3-1.9,1.7-2   C33.3,211.2,32.8,210.4,32,210.1z"
       id="path10155" /><path
       fill="#E2B5A5"
       d="M66.3,206.5L66.3,206.5l-1.8-1.6l-3.1-2.8l8-10.4l-9.4,9.2l-0.8-0.7l-1.7-1.5c-0.5,0.5-0.8,1.2-0.8,1.9   c0,0,0,0.1,0,0.1c0,0.7,0.3,1.2,0.7,1.6l0,0l-4.2,4.1l0,0c-1.6,1.6-3.5,1.7-3.5,1.7l4.9,6.3c0.3,0.5,0.7,1.2,0.7,0.3   c0-1.2,0.4-1.9,0.6-2.1l1.8-2.5c1.1-1.1,2.8-1.2,4-0.3l0.3,0.3l0.6,0.5l0,0c1.1,0.9,2.8,0.8,3.8-0.3   C67.4,209.2,67.3,207.5,66.3,206.5L66.3,206.5z M60.3,205.2c-0.3,0-0.5-0.2-0.5-0.4c0-0.3,0.2-0.5,0.4-0.5c0.3,0,0.5,0.2,0.5,0.4   C60.7,205,60.5,205.2,60.3,205.2z"
       id="path10157" /><path
       fill="#BA3033"
       d="M61.3,202.1l8-10.4l-9.4,9.2L61.3,202.1z"
       id="path10159" /><path
       fill="#E2B5A5"
       d="M55.3,213.3c-0.2-2.9-2.7-5.2-5.6-5.2H38.2c-3,0-5.4,2.3-5.7,5.2v17.4h1.6v-11.4c0-0.8,0.7-0.8,0.7-0.8h1.1   c0,0,0.7,0,0.7,0.8c0,0,0,0,0,0v11.4H38v-11.5l0,0c0,0,0-0.8,0.6-0.6c1.1,0.5,3.1,0.8,5.3,0.8c2.1,0,4-0.3,5.2-0.7c0,0,0.1,0,0.1,0   c0.6-0.2,0.6,0.6,0.6,0.6l0,0v11.5h1.6c0,0,0-11.4,0-11.4c0-0.8,0.7-0.8,0.7-0.8h1.1c0,0,0.7,0,0.7,0.8v11.4h1.6L55.3,213.3   L55.3,213.3z"
       id="path10161" /><polygon
       fill="#BA3033"
       points="34.1,229.8 32.5,229.8 32.5,230.7 34.5,230.7  "
       id="polygon10163" /><polygon
       fill="#BA3033"
       points="38,229.8 36.5,229.8 36.5,230.7 38.5,230.7  "
       id="polygon10165" /><polygon
       fill="#BA3033"
       points="51.3,229.8 49.8,229.8 49.8,230.7 51.8,230.7  "
       id="polygon10167" /><polygon
       fill="#BA3033"
       points="55.3,229.8 53.8,229.8 53.8,230.7 55.7,230.7  "
       id="polygon10169" /><circle
       fill="#FFFFFF"
       cx="60"
       cy="204.9"
       r="1.3"
       id="circle10171" /><g
       id="g10173"><path
         fill="#010101"
         d="M60.4,204.9c-0.2,0-0.4-0.2-0.4-0.4c0-0.2,0.1-0.3,0.2-0.4c-0.1,0-0.2,0-0.3,0c-0.4,0-0.8,0.4-0.8,0.8    c0,0.4,0.4,0.8,0.8,0.8s0.8-0.4,0.8-0.8c0-0.1,0-0.1,0-0.2C60.7,204.8,60.6,204.9,60.4,204.9z"
         id="path10175" /></g></g><g
     id="g10179"><text
       transform="matrix(1 0 0 1 11.4203 28.6079)"
       font-family="'RobotoSlab-Regular'"
       font-size="16"
       id="text10181"><tspan
         style="-inkscape-font-specification:Gotham;font-family:Gotham;font-weight:normal;font-style:normal;font-stretch:normal;font-variant:normal"
         id="tspan10787">100</tspan></text>
</g><text
     style="font-size:16px;font-family:RobotoSlab-Regular"
     id="text10187"
     font-size="16"
     transform="scale(-1,-1)"
     x="-155.82069"
     y="-220.84261"><tspan
       id="tspan10791"
       style="font-style:normal;font-variant:normal;font-weight:normal;font-stretch:normal;font-family:Gotham;-inkscape-font-specification:Gotham">100</tspan></text>
<path
     inkscape:connector-curvature="0"
     id="path3510-3"
     style="fill:#f47216;fill-opacity:1;fill-rule:nonzero;stroke:none"
     d="m 27.623553,36.431253 0.395055,0 0,-0.395572 -0.395055,0 0,0.395572 z m -2.372916,0.790627 0.395571,0 0,-0.395572 -0.395571,0 0,0.395572 z m -0.39609,0.396089 0.39609,0 0,-0.396089 -0.39609,0 0,0.396089 z m -1.581772,1.186717 0.395573,0 0,-0.395572 -0.395573,0 0,0.395572 z m -0.396088,0.395572 -0.395573,0 0,0.395056 0.395573,0 0,-0.395056 z m 0.396088,-0.395572 -0.396088,0 0,0.395572 0.396088,0 0,-0.395572 z m 1.185683,-0.39609 -0.395573,0 0,0.395573 0.395573,0 0,-0.395573 z m 0.396089,-0.790627 -0.396089,0 0,0.790627 0.396089,0 0,-0.790627 z m 0.39609,0.395572 0.395571,0 0,-0.395572 -0.395571,0 0,0.395572 z m 1.581771,-0.395572 -0.395572,0 0,0.395572 0.395572,0 0,-0.395572 z m 0.395573,-0.791661 -0.395573,0 0,0.791661 0.395573,0 0,-0.791661 z m 0.395572,-0.395055 -0.39609,0 0,0.395572 0.39609,0 0,-0.395572 z m 2.769005,3.164061 -0.396089,0 0,-0.395056 0,-0.395572 -0.395055,0 0,-0.39609 0,-0.395055 -0.395573,0 0,-0.791661 -0.395572,0 0,-0.395572 -0.395571,0 0,-0.395055 -0.39609,0 0,0.790627 0,0.110141 0,0.285949 -0.395055,0 0,0.395572 0.395055,0 0,0.174776 0,0.220279 -0.395055,0 0,-0.395055 -0.395572,0 0,0.395055 -0.395573,0 0,0.39609 0.395573,0 0,0.395572 -0.395573,0 0,0.395056 -0.395055,0 0,-0.395056 0.395055,0 0,-0.395572 -0.395055,0 0,-0.791145 -0.791661,0 0,0.395055 -0.395055,0 0,0.39609 -0.39609,0 0,0.790628 0.39609,0 0,0.396088 -0.39609,0 0,-0.396088 -0.396089,0 0,-0.395056 -0.395055,0 0,-0.395572 -0.395573,0 0,0.790628 -0.791143,0 0,0.396088 -0.395573,0 0,-0.396088 -0.395572,0 0,0.396088 0,0.317492 0,2.055425 3.165095,0 0.210971,0 4.93095,0 0,-2.769005 z" /><g
     opacity="0.2"
     id="g10189"><path
       fill="#5E806F"
       d="M138.4,214.9c0,0.3-0.6,0.5-1.3,0.5H78.4c-0.7,0-1.3-0.2-1.3-0.5s0.6-0.5,1.3-0.5h58.8   C137.9,214.4,138.4,214.6,138.4,214.9z"
       id="path10191" /></g><g
     id="g10193"><path
       fill="#5E806F"
       d="M56.6,123.8c-4,0-8.1-0.7-12-2.3l4.9-2.8l-2-4.4c11.4,4.5,24.3,0.1,30.7-10.4c6.4-10.5,4.2-24-5-32l5.1-5.9   c12.1,10.5,14.9,28.1,6.6,41.9C78.6,118,67.8,123.8,56.6,123.8z"
       id="path10195" /></g><polygon
     fill="#5E806F"
     points="95.1,214.9 86.9,214.9 87.7,211.2 91.5,210.3 96.9,163.5 119.4,173.5 "
     id="polygon10197" /><path
     fill="#7AA28D"
     d="M113,94.3C94.6,75.6,61.1,30.6,61.1,30.6L37.9,42.5L29.1,47l-0.5,0.3l0,0c-5.2,3-7.3,9.5-4.9,15l21.7-10.5  c1.7-0.8,3.7-0.1,4.6,1.6c0.8,1.7,0.1,3.7-1.6,4.6l-20,9.6c3.2,1.9,7.3,2.3,10.9,0.6l0,0l3.2-1.6l1.6-0.8c6-2.6,14.7-0.6,16.3,5.3  c1.6,6,5.1,41.2,5.1,41.2C65.8,113.2,121.5,103,113,94.3z M57.4,47c-0.3,1-1.5,1.6-2.5,1.2c-1-0.3-1.6-1.4-1.3-2.5  c0.3-1,1.5-1.6,2.5-1.3C57.1,44.8,57.7,46,57.4,47z"
     id="path10199" /><ellipse
     transform="matrix(0.8564 -0.5163 0.5163 0.8564 -55.2217 75.3256)"
     fill="#7AA28D"
     cx="107.8"
     cy="136.9"
     rx="30.5"
     ry="67.3"
     id="ellipse10201" /><path
     fill="#7AA28D"
     d="M147.5,151c-12.1-34.6-42.5-13.2-42.5-13.2l8.4,50c0,0,26.7,15.6,41.4,21.7c5,2.1,11.3,3.8,18.1,4.7V195  C164.3,186.7,155.1,172.9,147.5,151z"
     id="path10203" /><path
     fill="#528E73"
     d="M130.5,214.9h-9.3l0.9-4.2l3.7-0.7c0,0-9.4-27.9-11.2-33.2c-1.8-5.3,0-14.8,12.2-14.8s13.4,11.3,12.6,14.8  C138.6,180.2,130.5,214.9,130.5,214.9z"
     id="path10205" /><g
     id="g10207"><polygon
       fill="#FFFFFF"
       points="25.7,66.5 23.7,62.3 26.9,60.8  "
       id="polygon10209" /><polygon
       fill="#FFFFFF"
       points="28.3,65.2 26.2,61.1 29.5,59.5  "
       id="polygon10211" /><polygon
       fill="#FFFFFF"
       points="30.8,64 28.8,59.9 32,58.3  "
       id="polygon10213" /><polygon
       fill="#FFFFFF"
       points="33.3,62.8 31.3,58.6 34.6,57.1  "
       id="polygon10215" /><polygon
       fill="#FFFFFF"
       points="35.9,61.6 33.9,57.4 37.1,55.8  "
       id="polygon10217" /><polygon
       fill="#FFFFFF"
       points="38.4,60.3 36.4,56.2 39.7,54.6  "
       id="polygon10219" /><polygon
       fill="#FFFFFF"
       points="41,59.1 39,55 42.2,53.4  "
       id="polygon10221" /><polygon
       fill="#FFFFFF"
       points="43.5,57.9 41.5,53.7 44.7,52.2  "
       id="polygon10223" /></g><g
     id="g10225"><circle
       fill="#FFFFFF"
       cx="56.9"
       cy="44.1"
       r="5"
       id="circle10227" /><g
       id="g10229"><path
         fill="#010101"
         d="M56.5,42.4c0.2,0.8-0.3,1.7-1.2,1.9c-0.6,0.1-1.2-0.1-1.6-0.5c0,0.3,0,0.7,0.1,1c0.4,1.7,2.1,2.7,3.8,2.3    c1.7-0.4,2.7-2.1,2.3-3.8c-0.4-1.7-2.1-2.7-3.8-2.3c-0.2,0.1-0.5,0.2-0.7,0.3C56,41.5,56.4,41.9,56.5,42.4z"
         id="path10231" /></g><path
       fill="#528E73"
       d="M55.8,39.2c-2.7,0.7-4.3,3.4-3.7,6.1c0.2,0.7,0.5,1.3,0.9,1.8l7.7-6.4C59.5,39.4,57.6,38.8,55.8,39.2z"
       id="path10233" /></g><text
     font-size="80.612"
     id="text10235"
     x="14.115623"
     y="156.2"
     style="font-size:80.61199951px;font-family:RobotoSlab-Thin"><tspan
       style="font-style:normal;font-variant:normal;font-weight:300;font-stretch:normal;font-size:90px;font-family:Gotham;-inkscape-font-specification:'Gotham Light';letter-spacing:-6px"
       id="tspan10789">100</tspan></text>
<g
     id="g10237"><path
       fill="#528E73"
       d="M58.9,136.4c-3.5,0-7-0.6-10.5-1.7l5.7-2.7l-3.2-4.7c11.6,3.9,24.3-1.1,30.1-11.9c4.1-7.6,10.7-3.8,6.8,3.7   C82.1,130.1,70.7,136.4,58.9,136.4z"
       id="path10239" /></g><path
     d="m 139.61744,213.06875 -0.39505,0 0,0.39557 0.39505,0 0,-0.39557 z m 2.37292,-0.79063 -0.39557,0 0,0.39558 0.39557,0 0,-0.39558 z m 0.39609,-0.39608 -0.39609,0 0,0.39608 0.39609,0 0,-0.39608 z m 1.58177,-1.18672 -0.39557,0 0,0.39557 0.39557,0 0,-0.39557 z m 0.39609,-0.39557 0.39557,0 0,-0.39506 -0.39557,0 0,0.39506 z m -0.39609,0.39557 0.39609,0 0,-0.39557 -0.39609,0 0,0.39557 z m -1.18568,0.39609 0.39557,0 0,-0.39557 -0.39557,0 0,0.39557 z m -0.39609,0.79063 0.39609,0 0,-0.79063 -0.39609,0 0,0.79063 z m -0.39609,-0.39558 -0.39557,0 0,0.39558 0.39557,0 0,-0.39558 z m -1.58177,0.39558 0.39557,0 0,-0.39558 -0.39557,0 0,0.39558 z m -0.39558,0.79166 0.39558,0 0,-0.79166 -0.39558,0 0,0.79166 z m -0.39557,0.39505 0.39609,0 0,-0.39557 -0.39609,0 0,0.39557 z m -2.769,-3.16406 0.39608,0 0,0.39506 0,0.39557 0.39506,0 0,0.39609 0,0.39505 0.39557,0 0,0.79166 0.39557,0 0,0.39558 0.39558,0 0,0.39505 0.39609,0 0,-0.79063 0,-0.11014 0,-0.28595 0.39505,0 0,-0.39557 -0.39505,0 0,-0.17477 0,-0.22028 0.39505,0 0,0.39505 0.39557,0 0,-0.39505 0.39558,0 0,-0.39609 -0.39558,0 0,-0.39558 0.39558,0 0,-0.39505 0.39505,0 0,0.39505 -0.39505,0 0,0.39558 0.39505,0 0,0.79114 0.79166,0 0,-0.39505 0.39506,0 0,-0.39609 0.39609,0 0,-0.79063 -0.39609,0 0,-0.39609 0.39609,0 0,0.39609 0.39609,0 0,0.39505 0.39505,0 0,0.39558 0.39557,0 0,-0.79063 0.79115,0 0,-0.39609 0.39557,0 0,0.39609 0.39557,0 0,-0.39609 0,-0.31749 0,-2.05543 -3.16509,0 -0.21097,0 -4.93095,0 0,2.76901 z"
     style="fill:#f47216;fill-opacity:1;fill-rule:nonzero;stroke:none"
     id="path10802"
     inkscape:connector-curvature="0" /></svg>